<svg xmlns="http://www.w3.org/2000/svg" xmlns:xlink="http://www.w3.org/1999/xlink" width="375"
    height="317" viewBox="0 0 375 317">
    <defs>
        <clipPath id="clip-path">
            <rect id="Rectangle_74" data-name="Rectangle 74" width="375" height="317"
                transform="translate(0 495)" fill="#fff" stroke="#707070" stroke-width="1" />
        </clipPath>
    </defs>
    <g id="Mask_Group_8" data-name="Mask Group 8" transform="translate(0 -495)"
        clip-path="url(#clip-path)">
        <g id="Group_10" data-name="Group 10" transform="translate(-196.24 26.29)">
            <g id="Group_9" data-name="Group 9" transform="translate(1 641.794)">
                <path id="Path_1" data-name="Path 1"
                    d="M705.24,1100.462v62.053H693.42v.308H1v-50.159H11.984v18.984h4.272v-38.1l4.852-.939v-7.8h5.174v-21H26.3a6.925,6.925,0,0,1,6.83,7.02v.066h4.565v18.5l2.962-.573v29.245H44.6v-46.5l9.252-10.492,7.277,8.253,1.974,2.239v21.659h3.5v13.99H86.962v24.111h4.554v-51.568h20.342v24.514h4.529V1078.95c.9-.76,1.8-1.45,2.7-2.085v-9.725h3.835v-1.619h2.062v-7.761l.569-6.565a.285.285,0,0,1,.569,0l.572,6.565v7.761h2.059v1.619h8.969v5.215a29.441,29.441,0,0,1,12.426,6.595v45.271h15.454v-19.953h9.523V1088.51h4.723v-18.133l24.393,9.435v6.246h2.741v49.348h5.842v-42.1l13.182-5.732V1143.3h3.017V1101.71l2.092-1.428v-5.314h4.162v2.484l4.734-3.222L251,1101.71V1123.9h9.053v15.648h3.523v-31.41l4-.774v-6.426h4.264v-17.311h.011a5.711,5.711,0,0,1,5.633,5.787v.055h3.762v15.248l2.44-.474v4.7a10.264,10.264,0,0,1,3.259-.789v-18.14l7.626-8.65,7.622,8.65v17.854h2.888v21.814h2.059v-46.831a24.271,24.271,0,0,1,9.4-6.092,14.519,14.519,0,0,1,8.675-.11,23.879,23.879,0,0,1,9.758,6.2v39.087l3.108,4.525,4.36,6.345v20.661h3.67v-57.367c.745-.624,1.486-1.193,2.231-1.717v-8.015h3.16v-1.336h1.7v-6.4l.47-5.413a.235.235,0,0,1,.47,0l.47,5.413v6.4h1.7v1.336H363.7v4.294a24.329,24.329,0,0,1,10.242,5.439v16.613l2.158-1.079,11.795,5.9v41.983h1.938v-41.983l4.7-3.637v-9.916h3.894v-14.947l2.1.811h0l12.342,4.778,5.666,2.191v5.149h2.257v10.855l1.53-1.182,1.585,1.226,1.7,1.314v-6.242l10.866-4.727v25.847l.954.554v-7.156h1.534v-7.589l1.725-1.174v-4.382h3.428v2.048l3.9-2.657,6.976,4.752,2.077,1.413v-13.791h10.987v30.573h4.272v-38.1l4.852-.939v-7.8h5.171v-21h.015a6.928,6.928,0,0,1,6.833,7.02v.066h4.565v18.5l2.958-.573v29.245h3.956v-46.5l9.248-10.492,9.252,10.492v21.659h3.5v13.99h20.353v24.111h4.554v-51.568h20.346v24.514h4.525V1078.95c.9-.76,1.8-1.45,2.7-2.085v-9.725H579v-1.619h2.063v-7.761l.569-6.565a.287.287,0,0,1,.572,0l.569,6.565v7.761h2.062v1.619H593.8v5.215a29.42,29.42,0,0,1,12.426,6.595v45.271h15.454v-19.953h9.527V1088.51h4.723v-18.133l.341.132,3.218,1.244,20.834,8.059v6.246h2.741v49.348H668.9v-42.1l13.186-5.732V1143.3H685.1V1101.71l2.1-1.428v-5.314h4.158v2.484l2.066-1.406,2.668-1.817Z"
                    transform="translate(-1 -1019.209)" fill="#e6e7e8"
                    style="mix-blend-mode: multiply;isolation: isolate" />
                <path id="Path_2" data-name="Path 2" d="M567.763,1073.821l99.74,89.238H468.023Z"
                    transform="translate(-296.633 -1033.702)" fill="#58698c" />
                <path id="Path_3" data-name="Path 3"
                    d="M1509.813,1130.519h-1.686v-1.228h-2.222v1.228h-2.532v-1.228h-2.222v1.228h-2.532v-1.228H1496.4v1.228h-2.532v-3.128h-2.222v-12.236l-19.939-4.54v13.718h-12.229v4.022h4.554v8.044h-20.914v-4.906h-10.836v-6.087h-6.217v-5.07h-14.342v5.07h-6.739V1074.6l-26.3,11.466v51.516h-4.865v-4.2l-11.315-3.8-11.316,3.8v4.2h-2.24v19.969h160.864Z"
                    transform="translate(-854.275 -1034.193)" fill="#58698c" />
                <path id="Path_4" data-name="Path 4"
                    d="M307.584,1136.895h-5.225v-17.112q-14.587-8.735-29.174,0v23.584H260.67v-10.45h-9.278v-41.963l1.233-2.055h-1.233v-5.821h-.952v-1.4h-.913v-1.4h-.86v-5.333l-1.613-2.157-1.613,2.157v5.333h-.859v1.4h-.914v1.4h-.952v5.821h-1.234l1.234,2.055v41.963h-15.73c0-.766-.046-1.521-.115-2.27h1.375v-3H226.4a24.6,24.6,0,0,0-19.871-18.953v-1.787h1.05v-1.412h-1.05v-1.765h1.05v-1.412h-.536c-.292-1.179-1.681-2.424-4.226-2.559l-.436-3.813-.436,3.813c-2.545.135-3.934,1.38-4.226,2.559h-.536v1.412h1.05v1.765h-1.05v1.412h1.05v1.787a24.6,24.6,0,0,0-19.871,18.953h-1.84v3H177.9c-.069.749-.115,1.5-.115,2.27h-15.73v-41.963l1.233-2.055h-1.233v-5.821H161.1v-1.4h-.914v-1.4h-.859v-5.333l-1.613-2.157-1.613,2.157v5.333h-.859v1.4h-.914v1.4h-.952v5.821h-1.233l1.233,2.055v41.963H146.72v35.727H307.584Z"
                    transform="translate(-93.243 -1033.049)" fill="#58698c" />
                <path id="Path_5" data-name="Path 5" d="M962,1149.06l68.88,61.627H893.118Z"
                    transform="translate(-565.726 -1081.33)" fill="#58698c" />
                <g id="Group_8" data-name="Group 8" transform="translate(0)">
                    <path id="Path_6" data-name="Path 6"
                        d="M705.24,1052.763v55.044H693.42v.308H1v-41.377H3.22v4.294H5.752v-4.294H7.976v4.294h2.532v-4.294h2.22v4.294h2.532v-4.294h2.224v4.294h2.532v-4.294h2.22v4.294h2.532v-4.294h2.224v4.294h2.532v-4.294h2.22v-10.573h2.143v-6.019h1.6v-5.428l5.167-3.1,3.952-2.374,3.993-2.4v-12.9h.708v12.9l11.828,7.1,1.284.771v5.428h1.6v6.019h2.143v10.573h2.22v4.294H70.91v-1.145h2.224v1.145h2.532v-1.145h2.22v1.145h2.532v-1.145h2.224v1.145h2.532v-1.145H87.4v1.145h2.532v-1.145h2.224v1.145h2.532v-4.294H96.9v-16.591h20.79V1063h9.912v25.149h4.866v-4.2l6.91-2.319,4.4-1.475,7.266,2.437,1.9.638,2.147.719v4.2h4.863V1036.63l8.892-3.875,10.995-4.793.833-.363,5.578-2.433v50.809H193V1070.9h14.342v5.072h6.217v6.088H224.4v4.9h20.914v-8.044h-4.554V1074.9h12.228v-13.718l10.595,2.411.539.125,8.8,2v12.239h2.224v3.127h2.532v-1.226h2.22v1.226h2.532v-1.226h2.224v1.226h2.532v-1.226h2.22v1.226h2.532v-1.226h2.224v1.226H296.7v-1.226h2.22v1.226h2.532v-3.127h2.224v-21.8h2.139v-6.019h10.727v-41.965l-1.233-2.055h1.233v-5.82h.95v-1.4h.914v-1.4h.859v-5.336l1.615-2.154,1.615,2.154v5.336h.859v1.4h.914v1.4h.951v5.82h1.233l-1.233,2.055v41.965h10.727v6.019h2.14v26.665h12.4V1071.3h-4.98v-4.385h11.432v-33.92H360v-24.544l-1.938-3.828H360V992.8l-1.938-3.824H360v-5.82h3.927v-6.774l2.892-11.879,2.9,11.879v6.774h3.927v5.82h1.938l-1.938,3.824v11.821h1.938l-1.938,3.828v24.544H376.7v30.54h6.452v19.3h10.011v-6.5h2.22v1.273h2.536v-1.273h2.22v1.273h2.532v-1.273h2.22v1.273h2.532v-1.273h2.224v1.273h2.532v-1.273h2.22v1.273h2.532v-1.273h2.224v1.273h2.532v-3.534h2.22v-31.01l14.338-11.824,14.342,11.824v12.789h16.83v16.54h9.277v-41.961l-.2-.33-1.035-1.725h1.233v-5.82h.95v-1.4h.914v-1.4h.862v-5.332l.932-1.248.679-.91,1.615,2.158v5.332h.859v1.4h.914v1.4h.951v5.82H488.6l-1.233,2.055v41.961H503.1c0-.763.037-1.523.106-2.268a23.764,23.764,0,0,1,.462-3,24.2,24.2,0,0,1,2.213-6.1,24.636,24.636,0,0,1,16.8-12.712c.29-.062.58-.117.873-.165.609-.1,1.229-.187,1.853-.239q1.134-.11,2.294-.11a24.542,24.542,0,0,1,14.485,4.712q.429.314.848.649a24.85,24.85,0,0,1,4.554,4.752,24.4,24.4,0,0,1,4.143,9.215,23.764,23.764,0,0,1,.462,3c.07.745.106,1.5.106,2.268h15.733v-41.961l-.1-.165-1.134-1.89h1.233v-5.82h.951v-1.4h.914v-1.4h.859v-5.332l1.615-2.158,1.611,2.158v5.332h.862v1.4h.914v1.4h.95v5.82h1.233l-1.233,2.055v41.961h9.277v10.452H598.5v-23.586a31.847,31.847,0,0,1,7.7-3.391.054.054,0,0,1,.026-.007,25.029,25.029,0,0,1,15.454.547,33.152,33.152,0,0,1,6,2.851v17.112h8.595v-75.342H663.5v39.212l5.406,1.728,13.186,4.213,3.013.965,2.022.646v21.516h11.564v-12.081Z"
                        transform="translate(-1 -964.5)" fill="#122758" />
                    <rect id="Rectangle_1" data-name="Rectangle 1" width="51.72" height="3.001"
                        transform="translate(500.841 102.62)" fill="#122758" />
                    <rect id="Rectangle_2" data-name="Rectangle 2" width="8.296" height="8.296"
                        transform="translate(522.553 77.29)" fill="#122758" />
                    <g id="Group_1" data-name="Group 1" transform="translate(526.192 70.918)">
                        <path id="Path_7" data-name="Path 7"
                            d="M1435.342,1157.746l.509,4.451h-1.018Z"
                            transform="translate(-1434.833 -1157.746)" fill="#43000a" />
                        <path id="Path_8" data-name="Path 8"
                            d="M1436.22,1168.055c3.2,0,4.728,1.706,4.728,3.059h-4.728Z"
                            transform="translate(-1435.711 -1164.272)" fill="#122758" />
                        <rect id="Rectangle_3" data-name="Rectangle 3" width="5.198" height="1.412"
                            transform="translate(0.509 6.372)" fill="#122758" />
                        <rect id="Rectangle_4" data-name="Rectangle 4" width="5.198" height="1.412"
                            transform="translate(0.509 9.549)" fill="#122758" />
                    </g>
                    <g id="Group_2" data-name="Group 2" transform="translate(521.503 70.918)">
                        <path id="Path_9" data-name="Path 9"
                            d="M1435.342,1157.746l-.509,4.451h1.018Z"
                            transform="translate(-1430.144 -1157.746)" fill="#122758" />
                        <path id="Path_10" data-name="Path 10"
                            d="M1428.065,1168.055c-3.2,0-4.728,1.706-4.728,3.059h4.728Z"
                            transform="translate(-1422.867 -1164.272)" fill="#122758" />
                        <rect id="Rectangle_5" data-name="Rectangle 5" width="5.198" height="1.412"
                            transform="translate(5.198 7.784) rotate(180)" fill="#122758" />
                        <rect id="Rectangle_6" data-name="Rectangle 6" width="5.198" height="1.412"
                            transform="translate(5.198 10.962) rotate(180)" fill="#122758" />
                    </g>
                    <g id="Group_5" data-name="Group 5" transform="translate(411.867 42.69)">
                        <rect id="Rectangle_7" data-name="Rectangle 7" width="42.129"
                            height="63.547" transform="translate(0 15.771)" fill="#122758" />
                        <path id="Path_11" data-name="Path 11"
                            d="M1166.048,1096.612h-33.715l-1.412-2.471h36.539Z"
                            transform="translate(-1128.126 -1089.255)" fill="#122758" />
                        <g id="Group_4" data-name="Group 4" transform="translate(4.207 7.357)">
                            <g id="Group_3" data-name="Group 3">
                                <rect id="Rectangle_8" data-name="Rectangle 8" width="1.442"
                                    height="10.885" transform="translate(32.274)" fill="#122758" />
                                <rect id="Rectangle_9" data-name="Rectangle 9" width="1.442"
                                    height="10.885" transform="translate(29.046)" fill="#122758" />
                                <rect id="Rectangle_10" data-name="Rectangle 10" width="1.442"
                                    height="10.885" transform="translate(25.819)" fill="#122758" />
                                <rect id="Rectangle_11" data-name="Rectangle 11" width="1.442"
                                    height="10.885" transform="translate(22.591)" fill="#122758" />
                                <rect id="Rectangle_12" data-name="Rectangle 12" width="1.442"
                                    height="10.885" transform="translate(19.364)" fill="#122758" />
                                <rect id="Rectangle_13" data-name="Rectangle 13" width="1.442"
                                    height="10.885" transform="translate(16.137)" fill="#122758" />
                                <rect id="Rectangle_14" data-name="Rectangle 14" width="1.442"
                                    height="10.885" transform="translate(12.909)" fill="#122758" />
                                <rect id="Rectangle_15" data-name="Rectangle 15" width="1.442"
                                    height="10.885" transform="translate(9.682)" fill="#122758" />
                                <rect id="Rectangle_16" data-name="Rectangle 16" width="1.442"
                                    height="10.885" transform="translate(6.455)" fill="#122758" />
                                <rect id="Rectangle_17" data-name="Rectangle 17" width="1.442"
                                    height="10.885" transform="translate(3.227)" fill="#122758" />
                                <rect id="Rectangle_18" data-name="Rectangle 18" width="1.442"
                                    height="10.885" fill="#122758" />
                            </g>
                        </g>
                        <rect id="Rectangle_19" data-name="Rectangle 19" width="25.772"
                            height="4.413" transform="translate(8.179 1.268)" fill="#122758" />
                        <rect id="Rectangle_20" data-name="Rectangle 20" width="17.923"
                            height="1.885" transform="translate(12.103)" fill="#122758" />
                    </g>
                    <rect id="Rectangle_21" data-name="Rectangle 21" width="9.65" height="2.118"
                        transform="translate(641.106 35.985)" fill="#122758" />
                    <rect id="Rectangle_22" data-name="Rectangle 22" width="0.588" height="13.18"
                        transform="translate(642.283 24.923)" fill="#43000a" />
                    <g id="Group_7" data-name="Group 7" transform="translate(634.163 41.751)">
                        <g id="Group_6" data-name="Group 6">
                            <rect id="Rectangle_23" data-name="Rectangle 23" width="6.355"
                                height="1.883" fill="#122758" />
                            <rect id="Rectangle_24" data-name="Rectangle 24" width="6.355"
                                height="1.883" transform="translate(0 4.456)" fill="#122758" />
                            <rect id="Rectangle_25" data-name="Rectangle 25" width="6.355"
                                height="1.883" transform="translate(0 8.912)" fill="#122758" />
                            <rect id="Rectangle_26" data-name="Rectangle 26" width="6.355"
                                height="1.883" transform="translate(0 13.368)" fill="#122758" />
                            <rect id="Rectangle_27" data-name="Rectangle 27" width="6.355"
                                height="1.883" transform="translate(0 17.824)" fill="#122758" />
                            <rect id="Rectangle_28" data-name="Rectangle 28" width="6.355"
                                height="1.883" transform="translate(0 22.281)" fill="#122758" />
                            <rect id="Rectangle_29" data-name="Rectangle 29" width="6.355"
                                height="1.883" transform="translate(0 26.737)" fill="#122758" />
                            <rect id="Rectangle_30" data-name="Rectangle 30" width="6.355"
                                height="1.883" transform="translate(0 31.193)" fill="#122758" />
                            <rect id="Rectangle_31" data-name="Rectangle 31" width="6.355"
                                height="1.883" transform="translate(0 35.649)" fill="#122758" />
                            <rect id="Rectangle_32" data-name="Rectangle 32" width="6.355"
                                height="1.883" transform="translate(0 40.105)" fill="#122758" />
                            <rect id="Rectangle_33" data-name="Rectangle 33" width="6.355"
                                height="1.883" transform="translate(0 44.561)" fill="#122758" />
                            <rect id="Rectangle_34" data-name="Rectangle 34" width="6.355"
                                height="1.883" transform="translate(0 49.017)" fill="#122758" />
                            <rect id="Rectangle_35" data-name="Rectangle 35" width="6.355"
                                height="1.883" transform="translate(0 53.474)" fill="#122758" />
                            <rect id="Rectangle_36" data-name="Rectangle 36" width="6.355"
                                height="1.883" transform="translate(0 57.93)" fill="#122758" />
                            <rect id="Rectangle_37" data-name="Rectangle 37" width="6.355"
                                height="1.883" transform="translate(0 62.386)" fill="#122758" />
                            <rect id="Rectangle_38" data-name="Rectangle 38" width="6.355"
                                height="1.883" transform="translate(0 66.842)" fill="#122758" />
                        </g>
                    </g>
                    <rect id="Rectangle_39" data-name="Rectangle 39" width="11.827" height="14.563"
                        transform="translate(167.859 62.315)" fill="#122758" />
                    <rect id="Rectangle_40" data-name="Rectangle 40" width="5.737" height="1.412"
                        transform="translate(169.359 61.698)" fill="#122758" />
                    <rect id="Rectangle_41" data-name="Rectangle 41" width="0.419" height="13.062"
                        transform="translate(171.389 50.577)" fill="#122758" />
                    <rect id="Rectangle_42" data-name="Rectangle 42" width="8.944" height="18.123"
                        transform="translate(129.437 110.24)" fill="#122758" />
                    <rect id="Rectangle_43" data-name="Rectangle 43" width="10.591" height="1.589"
                        transform="translate(128.613 112.476)" fill="#122758" />
                    <rect id="Rectangle_44" data-name="Rectangle 44" width="15.416" height="23.654"
                        transform="translate(247.704 94.942)" fill="#122758" />
                    <path id="Path_12" data-name="Path 12"
                        d="M549.2,1222.291a7.254,7.254,0,0,0-.73-.749,3.669,3.669,0,0,0,.459.125,1.916,1.916,0,0,0-.3-.488c-.051-.026-.4-.029-.429-.07s.206-.2.2-.25a1.37,1.37,0,0,0-.327-.4c-.026,0-.286.239-.294.239a1.816,1.816,0,0,0-.051-.617,1.891,1.891,0,0,0-.462-.444c-.022,0-.2.429-.209.429a2.225,2.225,0,0,0-.125-.719,2.49,2.49,0,0,0-.587-.448,5.152,5.152,0,0,1-.165.492,1.873,1.873,0,0,0-.143-.7,1.892,1.892,0,0,0-.448-.286,4.273,4.273,0,0,1-.121.595c-.015,0-.257-.5-.4-.749a.825.825,0,0,0-.139-.209,2.853,2.853,0,0,0-.624-.327,1.477,1.477,0,0,0-.4-.14,3.511,3.511,0,0,1,0,.481,5.788,5.788,0,0,1-.407-.458,1.329,1.329,0,0,0-.257-.26,2.137,2.137,0,0,0-.433-.136,2.327,2.327,0,0,0-.264-.073,3.546,3.546,0,0,1,.018.4c-.018,0-.33-.433-.433-.5a1.1,1.1,0,0,0-.246-.062l.07-.044a9.042,9.042,0,0,1-.367-1.06c-.011-.026-.018-.055-.029-.081.011.018.018.041.029.059a4.675,4.675,0,0,0,.437.668,1.9,1.9,0,0,0,.209.25c.2-.121.4-.239.6-.352-.1-.194-.158-.444-.242-.638.114.22.363.308.536.47h.007l.007,0c.209-.117.415-.235.624-.356-.136-.294-.44-1.017-.51-1.156.206.147.426.26.635.4a3.6,3.6,0,0,0,.411.312.287.287,0,0,0,.128.041c.158-.1.312-.206.462-.316-.216-.22-.279-.66-.455-.917a2.45,2.45,0,0,0,.73.712c.162-.128.323-.264.477-.407a.222.222,0,0,1,.029-.029,1.49,1.49,0,0,1-.224-.363c.088.11.3.15.415.191.132-.114.275-.242.418-.382-.154-.275-.422-.539-.576-.774a3.035,3.035,0,0,0,.822.521,2.946,2.946,0,0,0,.352-.466,8.223,8.223,0,0,1-.925-.609c.224-.092.683.1.917.128.044.007.114.022.183.04a.89.89,0,0,0,.015-.312.763.763,0,0,0-.58-.7,2.8,2.8,0,0,1-.569.422,1.454,1.454,0,0,0,.158-.492,2.2,2.2,0,0,0-.312,0h-.026c0,.007,0,.018,0,.026a1.588,1.588,0,0,1-.128.459,1.1,1.1,0,0,1-.066-.282v0c-.011-.062-.022-.125-.033-.176-.1.015-.2.03-.3.048.018.132.015.271.029.4a.7.7,0,0,0,.033.18,1.284,1.284,0,0,1-.088-.128c-.084-.125-.18-.279-.272-.389-.121.029-.246.063-.371.1.04.231.106.47.165.686-.15-.173-.264-.4-.407-.587a.074.074,0,0,0-.015-.022c-.147.04-.29.088-.433.136a2.316,2.316,0,0,1,.187.745,3.868,3.868,0,0,0-.4-.668c-.106.04-.209.077-.312.117a2.848,2.848,0,0,1,.228.844,3.605,3.605,0,0,1-.525-.532.889.889,0,0,0-.15-.136c-.246.1-.474.2-.675.286a4.646,4.646,0,0,1,.18.657c-.143.011-.264-.191-.385-.3a1.941,1.941,0,0,0-.224-.165c-.073.033-.136.063-.187.084l-.066.029c-.2-.18-.415-.356-.587-.528.132.07.4.172.653.3a2.573,2.573,0,0,1,.319.18c.022-.077.044-.151.066-.228v-.014a4.053,4.053,0,0,1-.385-.272c-.04-.029-.081-.066-.117-.1.037,0,.077,0,.117,0a2.222,2.222,0,0,1,.44.041v0c.033-.128.195-.345.191-.474s.055-.022-.084-.139a1.188,1.188,0,0,0-.547-.191l-.227-.022a1.252,1.252,0,0,1-.4.3.7.7,0,0,1,.106-.319c-.147,0-.283-.008-.389-.015-.033,0-.066,0-.1-.007-.121.158-.224.327-.33.492a4.108,4.108,0,0,0-.393.712,4.246,4.246,0,0,1,.15-.976c.007-.059.011-.136.015-.216-.106.011-.213.026-.316.044-.1.206-.286.47-.338.606a5.31,5.31,0,0,1-.521,1c-.11.169-.294.308-.385.484.187-.389.194-.833.411-1.211.165-.282.367-.55.558-.822a4.658,4.658,0,0,0-.881.315,2.985,2.985,0,0,1-.088.323c-.029.092-.055.18-.07.246-.07.319-.169.631-.231.954a2.449,2.449,0,0,1-.345,1.053,1.164,1.164,0,0,1,0-.319c-.007-.253-.15-.481-.154-.73a2.91,2.91,0,0,1,.363-1.233,6.09,6.09,0,0,0-.613.448,8.488,8.488,0,0,1-.246,2.11,4.758,4.758,0,0,1-.539-1.317c-.081.092-.154.187-.224.282.066.275.048.6.125.863.055.194.26.609.139.8a2.654,2.654,0,0,1-.668-1.017c-.073.14-.139.279-.194.415-.037.088-.077.173-.114.261.106.246.2.5.3.723a3.287,3.287,0,0,1,.385.98l0,0a4.552,4.552,0,0,1-.4-.481c-.062-.216-.132-.433-.209-.646-.25.018-.5.04-.738.051a5.846,5.846,0,0,0,.609-.393c-.084-.209-.176-.415-.279-.62-.007-.011-.011-.022-.018-.033a3.113,3.113,0,0,1-.547.081c.125-.173.239-.33.349-.488-.128-.268-.264-.539-.4-.815a2.809,2.809,0,0,0-.84.26,6.53,6.53,0,0,0,.459-.591,1.691,1.691,0,0,0,.084-.217c-.088-.15-.18-.3-.275-.448a2.719,2.719,0,0,0-.554.29c.11-.18.25-.374.36-.576a5.285,5.285,0,0,0-.734-.829c-.136.231-.242.481-.367.719a3.844,3.844,0,0,0,.059-.969c-.033-.022-.066-.044-.1-.066a4.762,4.762,0,0,0-.565-.33c-.173.275-.525.576-.451.928a9.672,9.672,0,0,1-.224-1.226,8.964,8.964,0,0,0-1-.308,2.275,2.275,0,0,0-.264.444,1.055,1.055,0,0,1-.18-.54c-.18-.037-.36-.066-.536-.092a2.433,2.433,0,0,0-.132.94,10.26,10.26,0,0,0-.3-.991c-.092-.011-.183-.018-.275-.026-.015.327-.033.653-.037.976-.213-.334-.444-.675-.675-1a5.618,5.618,0,0,0-.8.059,2.733,2.733,0,0,0,.235.543,3.291,3.291,0,0,1-.6-.323,2,2,0,0,1-.165-.128,14.971,14.971,0,0,0-2.088.664,2.292,2.292,0,0,0,.712.312,1.952,1.952,0,0,1,.44.293c.374.044.749.11,1.123.191-.25.029-.514.066-.774.106a7.412,7.412,0,0,1,.569.554,3.233,3.233,0,0,1,.466-.18c.506-.136,1.031-.2,1.534-.356a15.829,15.829,0,0,0-1.424.822c-.066.029-.132.063-.195.1a3.248,3.248,0,0,0,.393.315c.136.092.275.176.411.264.462-.2.94-.334,1.406-.521a.537.537,0,0,1,.253-.106c-.084.041-.169.073-.253.106a8.84,8.84,0,0,0-.657.62c-.081.07-.161.136-.242.2.235.139.473.271.712.4a5.223,5.223,0,0,1,.943-.668,6.056,6.056,0,0,0-.635.837c.217.117.437.239.657.36.253-.1.521-.165.679-.231a5.285,5.285,0,0,1,1.061-.4,12.986,12.986,0,0,1-.9,1.108c.125.077.25.151.374.228.048-.041.1-.081.139-.125.114-.11.235-.319.345-.371-.051.1-.121.213-.176.316s-.1.183-.151.279c.173.11.341.22.51.338.128-.037.253-.07.341-.1.319-.11,1.024-.6,1.317-.507a5.351,5.351,0,0,1-.9,1.186l.015.011a9.564,9.564,0,0,1,.741.7,3.116,3.116,0,0,0,.745-.1c-.2.081-.4.169-.595.261.106.11.209.224.312.337.239-.088.5-.154.686-.206-.106.114-.209.224-.312.338a2.3,2.3,0,0,0-.283-.088l-.062-.011a6.925,6.925,0,0,1,.554,1.266c-.393-.224-.62-.756-.87-1.112a2.949,2.949,0,0,0-.239-.275,3.579,3.579,0,0,0-.84-.084,4.115,4.115,0,0,0-.55.062c.176.195.334.422.488.58.312.308.675.576.954.91a5.1,5.1,0,0,1-1.42-.694c-.316-.187-.686-.36-1.035-.547-.14.037-.279.073-.418.106-.22.055-.444.117-.668.191a3.982,3.982,0,0,1,1.409,1.09c-.312.128-.9-.227-1.182-.334-.389-.15-.881-.187-1.284-.323-.161.077-.319.158-.477.246a7.617,7.617,0,0,1,1.894.972,14.623,14.623,0,0,1-3.255-.051,8.272,8.272,0,0,0-.807.752,4.857,4.857,0,0,1,1.949-.271c.382.051.7.282,1.079.338a2.12,2.12,0,0,1,.488.062,4.19,4.19,0,0,1-1.673.272c-.5.029-.995.106-1.494.143-.22.015-.573.088-.9.114a5.942,5.942,0,0,0-.661,1.13c.451-.206.9-.433,1.362-.605.617-.224,1.292-.154,1.919-.338-.279.092-.532.316-.811.433a8.969,8.969,0,0,1-1.626.529c-.216.044-.653.242-.987.345a4.324,4.324,0,0,0-.132.422c.125.007.239.015.33.015a7.427,7.427,0,0,1,1.512-.025,6.1,6.1,0,0,0-1.16.4c-.272.114-.55.22-.811.356,0,.044-.007.088-.011.136-.007.147-.029.33-.055.529a1.23,1.23,0,0,1,.506-.085,1.819,1.819,0,0,1-.543.485,1.784,1.784,0,0,0,.169,1.086c.147.209-.007.11.191.14a4.261,4.261,0,0,0,.76-.173h0a4.2,4.2,0,0,1,.048-.763,5.186,5.186,0,0,1,.462.749h.018c.121-.015.239-.033.36-.048a10.535,10.535,0,0,1-.532-1.4c.341.393.668.917,1.042,1.328.338-.052.675-.106,1.013-.169-.055-.228-.088-.474-.125-.613a3.128,3.128,0,0,1-.2-1.017,6.529,6.529,0,0,0,1.391,1.417c.191-.041.382-.084.569-.128.084-.019.172-.037.257-.059a3.461,3.461,0,0,1-.506-1.031,7.9,7.9,0,0,0,.917.936c.2-.048.4-.1.591-.161a7.137,7.137,0,0,1-.569-.91,4.813,4.813,0,0,1-.6-1.017c.448.363.774.9,1.233,1.27.114.092.349.268.528.4,0,0,0,0,.007,0a3.932,3.932,0,0,0,.8-.58c-.018-.033-.037-.066-.055-.1s-.044-.081-.062-.11a9.611,9.611,0,0,1-.536-.921,1.928,1.928,0,0,0-.356-.631,13.126,13.126,0,0,1,1.534,1.145.47.47,0,0,0,.055.037l.385-.418c.026-.026.048-.048.07-.073s.037-.04.055-.059c-.169-.514-.308-1.042-.521-1.534.224.246.466.484.7.719a3.373,3.373,0,0,0,.286.246c.143-.187.286-.378.426-.569a2.891,2.891,0,0,1-.352-.958c.213.206.4.418.609.62a8.3,8.3,0,0,1,.8-.917,10.536,10.536,0,0,1-.371-1.009,1.535,1.535,0,0,0,.47.334c.011.4.022.8.029,1.222.033,1.666.044,3.516.033,5.483-.022,7.288-.29,16.151-.536,22.955-.088,2.382-.173,4.514-.246,6.235-.11,2.7-.187,4.4-.191,4.466l1.916.092c0-.07.081-1.8.2-4.558.07-1.725.154-3.853.242-6.235.246-6.808.51-15.659.536-22.955.007-1.119,0-2.2,0-3.237a2.423,2.423,0,0,0,.235.279c.158-.062.374-.136.473-.176.055-.022.106-.048.158-.073.345-.173.653-.429,1-.569a3.506,3.506,0,0,1-.65.6c-.114.11-.231.22-.352.327a2.652,2.652,0,0,1-.253.2c.081.055.169.11.253.161.044.029.088.055.132.081a5.658,5.658,0,0,0,.862-.466,2.792,2.792,0,0,1-.587.627c.059.033.114.063.169.1.128.073.253.147.382.213a4.723,4.723,0,0,0,1.3-.708,2.341,2.341,0,0,1-.36.683c-.059.092-.136.261-.224.415.228.117.455.231.69.341.356-.213.7-.518,1.031-.727a7.983,7.983,0,0,1-.683.888c.081.037.161.073.246.11l.011.007a3.7,3.7,0,0,1,.5-.437,3.215,3.215,0,0,1-.132.558h0c.139.059.36.264.506.286s.015.063.165-.059a1.284,1.284,0,0,0,.356-.738,1.429,1.429,0,0,1-.283-.466.869.869,0,0,1,.345.173c.026-.147.048-.286.073-.393a.986.986,0,0,0,.026-.1c-.161-.154-.334-.29-.5-.433-.007-.007-.018-.015-.026-.022a4.7,4.7,0,0,0-.719-.517,5.768,5.768,0,0,1,1.079.349c.062.018.147.04.235.059a2.486,2.486,0,0,0,0-.33c-.216-.147-.488-.382-.631-.462a6.413,6.413,0,0,1-.837-.558c-.073-.055-.143-.114-.213-.173-.172-.143-.3-.356-.488-.484a4.566,4.566,0,0,0,.7.338,2.773,2.773,0,0,1,.6.319c.293.224.561.484.844.73a4.489,4.489,0,0,0-.228-.95c-.228-.092-.466-.22-.616-.279-.2-.077-.4-.165-.6-.25-.143-.062-.29-.121-.437-.176a3.066,3.066,0,0,1-1.138-.562,1.641,1.641,0,0,1,.363.066c.283.044.562-.055.844-.007a2.086,2.086,0,0,1,.367.1,4.174,4.174,0,0,1,.969.518,5.988,5.988,0,0,0-.415-.712c-.183-.037-.367-.077-.554-.117a9.083,9.083,0,0,1-1.787-.558,5.8,5.8,0,0,1,1.567-.283c-.1-.1-.191-.191-.286-.279-.319.011-.682-.073-.991-.048a3.269,3.269,0,0,1-.756.044c.066-.011.136-.026.191-.033.011-.019.018-.026.029-.044a.279.279,0,0,1-.1-.07.383.383,0,0,1-.048-.055c.048-.026.1-.051.147-.073.077.084.154.165.206.228h.007c.018,0,.051,0,.077-.007a1.8,1.8,0,0,1,.206-.026,3.009,3.009,0,0,0,.5-.018,3.094,3.094,0,0,0-.121-.562,2.386,2.386,0,0,0,.327.562,2.792,2.792,0,0,0,.829.059.013.013,0,0,0,.011,0s0-.022-.011-.051c-.066-.213-.429-1.009-.429-1.028,0,0,.264.312.429.529.033.04.059.077.081.106a4.565,4.565,0,0,0,.286.492.73.73,0,0,0,.264.048,2.955,2.955,0,0,0-.066-.837,4.926,4.926,0,0,0,.272.661.932.932,0,0,0,.121.25,2.527,2.527,0,0,0,.719.213c.015-.007.015-.469.015-.469s.246.4.338.6l.011.007h0c.2.081.521.253.672.316a.2.2,0,0,0,.077.022c.026-.011.044-.917.048-.917s.323.481.455.727c.062.117.172.521.3.624a4.066,4.066,0,0,0,.573.345l.117-.767a2.75,2.75,0,0,0,.231.987,4.135,4.135,0,0,0,.624.418.175.175,0,0,0,.04.029l.059-.349a2.915,2.915,0,0,0,.191.532,2.771,2.771,0,0,0,.547.44c.018,0,.084-.9.084-.9a4.585,4.585,0,0,0,.25,1.171,2.325,2.325,0,0,0,.536.415s-.224-1.314-.224-1.376c.037.074.422.9.558,1.314.022.059.04.235.081.268a.344.344,0,0,0,.228,0C549.333,1223.15,549.428,1222.647,549.2,1222.291Zm-8.195-8.463c.11.257.209.547.261.683a2.158,2.158,0,0,1-.44-.562,2.391,2.391,0,0,0-.216-.253A2.958,2.958,0,0,1,541.006,1213.828Zm-.418,1.028c.007.03.011.063.018.092a1.882,1.882,0,0,0-.158-.154C540.5,1214.812,540.54,1214.834,540.588,1214.856Zm-2.121,2.815h0c.081.106.147.206.176.253l-.077-.022-.1-.062s0,0-.007,0c-.011-.051-.018-.1-.026-.151C538.444,1217.682,538.455,1217.674,538.466,1217.671Zm0,4.015a1.758,1.758,0,0,0-.36.36c-.165.173-.334.327-.514.481,0-.18,0-.36,0-.536a3.385,3.385,0,0,1,.877-.312.081.081,0,0,1,.029-.007A.1.1,0,0,0,538.466,1221.686Zm2.506-4.169.132-.077a1.289,1.289,0,0,1,.1.3Zm.712-.275c-.026-.033-.059-.073-.092-.114a1.068,1.068,0,0,0-.26-.25.553.553,0,0,0-.125-.03c-.128-.235-.25-.47-.371-.712l-.11-.209c.055.048.11.1.165.158.147.15.29.316.422.466.088.1.187.209.279.323.051.059.1.121.143.18a.335.335,0,0,1,.048-.029c.092.2.327.712.356.785C542.092,1217.755,541.8,1217.392,541.685,1217.241Z"
                        transform="translate(-332.479 -1119.855)" fill="#122758" />
                    <path id="Path_13" data-name="Path 13"
                        d="M476.49,1222.291a8.087,8.087,0,0,0-.73-.749,3.61,3.61,0,0,0,.455.125,1.871,1.871,0,0,0-.294-.488c-.051-.026-.4-.029-.433-.07s.209-.2.206-.25a1.429,1.429,0,0,0-.327-.4c-.026,0-.29.239-.3.239a1.8,1.8,0,0,0-.048-.617,1.962,1.962,0,0,0-.462-.444c-.022,0-.206.429-.213.429a2.225,2.225,0,0,0-.125-.719,2.481,2.481,0,0,0-.583-.448s-.151.492-.165.492a1.949,1.949,0,0,0-.143-.7,1.9,1.9,0,0,0-.451-.286,4.864,4.864,0,0,1-.117.595c-.015,0-.26-.5-.4-.749a.73.73,0,0,0-.136-.209,2.578,2.578,0,0,0-.506-.279,2.244,2.244,0,0,0-.518-.187,4.184,4.184,0,0,1,0,.481,5.619,5.619,0,0,1-.411-.458,1.236,1.236,0,0,0-.257-.26,2.071,2.071,0,0,0-.433-.136,2.327,2.327,0,0,0-.264-.073,2.369,2.369,0,0,1,.018.4c-.018,0-.33-.433-.429-.5a1.21,1.21,0,0,0-.25-.062l.07-.044c-.176-.363-.253-.763-.4-1.141a4.854,4.854,0,0,0,.466.727,2.722,2.722,0,0,0,.209.25c.2-.121.4-.239.6-.352-.1-.194-.158-.444-.239-.638.11.22.36.308.532.47h.011l0,0c.209-.117.418-.235.624-.356-.132-.294-.44-1.017-.506-1.156.206.147.426.26.635.4.1.07.374.353.528.353h.007c.158-.1.312-.206.462-.316-.213-.22-.279-.66-.455-.917a2.449,2.449,0,0,0,.73.712c.165-.128.323-.264.477-.407a.222.222,0,0,0,.029-.029,1.6,1.6,0,0,1-.22-.363c.088.11.3.15.415.191.128-.114.275-.242.418-.382-.154-.275-.422-.539-.58-.774a3.059,3.059,0,0,0,.826.521,3.187,3.187,0,0,0,.352-.466,8.266,8.266,0,0,1-.929-.609c.224-.092.683.1.921.128.044.007.11.022.183.04a1.1,1.1,0,0,0,.015-.312.771.771,0,0,0-.583-.7,2.794,2.794,0,0,1-.569.422,1.55,1.55,0,0,0,.161-.492,2.567,2.567,0,0,0-.338,0,1.649,1.649,0,0,1-.136.484,2.7,2.7,0,0,1-.1-.462c-.1.015-.2.03-.3.048a3.955,3.955,0,0,0,.062.58c-.1-.128-.231-.363-.36-.517-.121.029-.246.063-.371.1.044.231.106.47.165.686a3.4,3.4,0,0,1-.286-.411,1.9,1.9,0,0,0-.136-.2c-.143.04-.286.088-.429.136a2.408,2.408,0,0,1,.184.745,3.864,3.864,0,0,0-.4-.668c-.1.04-.209.077-.312.117a2.852,2.852,0,0,1,.228.844,3.575,3.575,0,0,1-.521-.532,1.3,1.3,0,0,0-.15-.136c-.25.1-.477.2-.675.286a5.184,5.184,0,0,1,.18.657c-.147.011-.268-.191-.389-.3a1.931,1.931,0,0,0-.224-.165c-.106.048-.187.088-.25.114-.206-.18-.418-.356-.591-.528a8.292,8.292,0,0,1,.973.481c.022-.077.044-.151.066-.228l0-.014a3.631,3.631,0,0,1-.5-.371,3.03,3.03,0,0,1,.558.044v0c.033-.128.195-.345.187-.474s.055-.022-.084-.139a1.475,1.475,0,0,0-.774-.213,1.213,1.213,0,0,1-.4.3.8.8,0,0,1,.106-.319c-.147,0-.279-.008-.389-.015-.033,0-.066,0-.1-.007-.121.158-.22.327-.33.492a4.1,4.1,0,0,0-.393.712,4.7,4.7,0,0,1,.15-.976c.007-.059.015-.136.018-.216q-.16.016-.319.044c-.1.206-.283.47-.334.606a5.063,5.063,0,0,1-.268.573c-.077.147-.165.29-.257.429-.11.169-.294.308-.385.484.187-.389.2-.833.415-1.211.07-.121.147-.239.228-.356.106-.158.22-.312.327-.466a3.274,3.274,0,0,0-.327.1,4.835,4.835,0,0,0-.55.22c-.048.209-.132.429-.161.569-.07.319-.169.631-.231.954a2.443,2.443,0,0,1-.341,1.053,1.158,1.158,0,0,1,0-.319c-.007-.253-.151-.481-.151-.73a2.808,2.808,0,0,1,.363-1.233,5.759,5.759,0,0,0-.617.448,8.482,8.482,0,0,1-.242,2.11,4.656,4.656,0,0,1-.543-1.317c-.077.092-.151.187-.22.282.066.275.048.6.121.863.055.194.264.609.143.8a2.655,2.655,0,0,1-.668-1.017c-.073.14-.139.279-.2.415-.037.088-.073.173-.114.261.107.246.2.5.308.723a3.275,3.275,0,0,1,.382.98,3.748,3.748,0,0,1-.4-.477c-.066-.216-.136-.433-.213-.646-.246.018-.5.04-.738.051a5.482,5.482,0,0,0,.609-.393c-.084-.209-.176-.415-.279-.62,0-.011-.011-.022-.015-.033a3.151,3.151,0,0,1-.55.081c.125-.173.242-.33.352-.488-.132-.268-.264-.539-.407-.815a2.753,2.753,0,0,0-.837.26,5.885,5.885,0,0,0,.455-.591,1.672,1.672,0,0,0,.084-.217c-.088-.15-.176-.3-.272-.448a2.626,2.626,0,0,0-.554.29c.106-.18.246-.374.356-.576a5.09,5.09,0,0,0-.73-.829c-.139.231-.246.481-.371.719a3.833,3.833,0,0,0,.059-.969l-.1-.066a4.7,4.7,0,0,0-.561-.33c-.176.275-.528.576-.455.928a9.687,9.687,0,0,1-.22-1.226,8.8,8.8,0,0,0-1.006-.308,2.476,2.476,0,0,0-.264.444,1.09,1.09,0,0,1-.176-.54c-.18-.037-.36-.066-.539-.092a2.431,2.431,0,0,0-.132.94,9.3,9.3,0,0,0-.294-.991c-.092-.011-.184-.018-.275-.026-.018.327-.033.653-.037.976-.217-.334-.444-.675-.679-1a5.525,5.525,0,0,0-.793.059,2.519,2.519,0,0,0,.231.543,3.291,3.291,0,0,1-.6-.323,1.506,1.506,0,0,1-.161-.128,15.02,15.02,0,0,0-2.092.664,2.293,2.293,0,0,0,.712.312,1.958,1.958,0,0,1,.44.293c.378.044.752.11,1.123.191-.25.029-.51.066-.771.106a7.4,7.4,0,0,1,.569.554,3.377,3.377,0,0,1,.462-.18c.506-.136,1.035-.2,1.534-.356a16.363,16.363,0,0,0-1.424.822c-.066.029-.128.063-.195.1a3.02,3.02,0,0,0,.4.315c.136.092.272.176.411.264.459-.2.939-.334,1.406-.521a.526.526,0,0,1,.25-.106c-.081.041-.165.073-.25.106a8.972,8.972,0,0,0-.661.62c-.077.07-.158.136-.239.2.235.139.473.271.712.4a4.97,4.97,0,0,1,.943-.668,6.069,6.069,0,0,0-.639.837c.22.117.44.239.657.36.257-.1.521-.165.679-.231a5.318,5.318,0,0,1,1.064-.4,13.792,13.792,0,0,1-.9,1.108c.128.077.253.151.378.228.048-.041.092-.081.136-.125.114-.11.235-.319.349-.371-.051.1-.121.213-.176.316s-.1.183-.15.279c.169.11.341.22.506.338.128-.037.253-.07.345-.1.316-.11,1.02-.6,1.318-.507a5.365,5.365,0,0,1-.9,1.186l.015.011a9.631,9.631,0,0,1,.745.7,3.083,3.083,0,0,0,.741-.1c-.2.081-.4.169-.595.261.106.11.209.224.312.337.242-.088.5-.154.69-.206-.11.114-.209.224-.312.338a2.368,2.368,0,0,0-.286-.088l-.062-.011a6.917,6.917,0,0,1,.554,1.266c-.393-.224-.62-.756-.866-1.112a3.621,3.621,0,0,0-.239-.275,3.578,3.578,0,0,0-.84-.084,3.982,3.982,0,0,0-.55.062c.172.195.33.422.488.58.308.308.675.576.951.91a5.076,5.076,0,0,1-1.417-.694c-.316-.187-.686-.36-1.035-.547-.143.037-.283.073-.418.106-.22.055-.448.117-.672.191a3.983,3.983,0,0,1,1.409,1.09c-.308.128-.9-.227-1.182-.334-.385-.15-.877-.187-1.281-.323-.161.077-.323.158-.477.246a7.684,7.684,0,0,1,1.894.972,14.656,14.656,0,0,1-3.259-.051c-.2.169-.4.345-.587.528-.073.073-.147.147-.217.224.07-.022.143-.048.217-.07a4.609,4.609,0,0,1,1.732-.2c.378.051.694.282,1.075.338a2.1,2.1,0,0,1,.488.062,4.191,4.191,0,0,1-1.674.272c-.5.029-.995.106-1.494.143-.04,0-.081.007-.128.015-.213.026-.5.077-.767.1a5.924,5.924,0,0,0-.657,1.13c.451-.206.9-.433,1.362-.605a.374.374,0,0,1,.062-.018c.594-.2,1.251-.143,1.857-.32-.283.092-.532.316-.811.433a8.277,8.277,0,0,1-1.046.375c-.195.062-.389.11-.583.154-.213.044-.653.242-.987.345a4.285,4.285,0,0,0-.128.422c.121.007.239.015.327.015a10.767,10.767,0,0,1,1.373-.044.626.626,0,0,1,.143.019c-.048.011-.1.022-.143.036a6.425,6.425,0,0,0-1.02.367c-.272.114-.547.22-.811.356,0,.044-.007.088-.007.136-.011.147-.033.33-.055.529a1.21,1.21,0,0,1,.506-.085,1.911,1.911,0,0,1-.543.485,1.786,1.786,0,0,0,.165,1.086c.147.209-.007.11.194.14a4.26,4.26,0,0,0,.76-.173c0-.048-.007-.1-.007-.143,0-.217.04-.448.055-.62a5.546,5.546,0,0,1,.466.749h.018c.092-.011.187-.026.279-.037l.077-.011a1.536,1.536,0,0,1-.077-.154c-.209-.433-.352-1-.451-1.248.15.176.3.374.451.58a8.536,8.536,0,0,0,.587.749c.341-.052.679-.106,1.013-.169-.051-.228-.088-.474-.125-.613a3.219,3.219,0,0,1-.195-1.017,6.526,6.526,0,0,0,1.391,1.417c.187-.041.378-.084.569-.128.084-.019.169-.037.253-.059a3.55,3.55,0,0,1-.506-1.031,7.706,7.706,0,0,0,.921.936c.2-.048.4-.1.587-.161a7.556,7.556,0,0,1-.569-.91,4.981,4.981,0,0,1-.6-1.017c.448.363.774.9,1.233,1.27.114.092.36.271.539.407a4.017,4.017,0,0,0,.793-.58c-.044-.077-.081-.15-.117-.205a9.585,9.585,0,0,1-.536-.921,1.931,1.931,0,0,0-.356-.631,14.966,14.966,0,0,1,1.589,1.182c.132-.14.261-.283.389-.418l.121-.132c-.169-.514-.3-1.042-.521-1.534.228.246.466.484.7.719a2.516,2.516,0,0,0,.286.246c.143-.187.283-.378.426-.569a2.914,2.914,0,0,1-.356-.958c.217.206.407.418.609.62a7.966,7.966,0,0,1,.8-.917,9.614,9.614,0,0,1-.371-1.009,1.518,1.518,0,0,0,.466.334c.084,2.969.084,6.672.033,10.621-.062,4.859-.206,10.092-.356,14.793v0c-.051,1.475-.1,2.9-.15,4.242-.084,2.382-.172,4.514-.242,6.235-.114,2.7-.191,4.4-.195,4.466l1.916.092c0-.07.084-1.8.2-4.558.07-1.725.154-3.853.242-6.235.07-1.872.136-3.9.206-6.011.128-4.224.242-8.767.3-13.028.033-2.525.048-4.951.029-7.153a2.876,2.876,0,0,0,.235.279c.161-.062.374-.136.473-.176a5.738,5.738,0,0,0,.8-.455,2.356,2.356,0,0,1,.36-.187,1.462,1.462,0,0,1-.36.363c-.1.081-.209.158-.29.235a5.522,5.522,0,0,1-.6.529q.187.126.385.242c.161-.077.349-.165.506-.253a2.328,2.328,0,0,0,.356-.213,1.939,1.939,0,0,1-.356.418c-.077.073-.154.14-.231.209.055.033.114.063.169.1.022.011.04.026.062.037.1.059.213.121.316.176a4.667,4.667,0,0,0,1.3-.708,2.251,2.251,0,0,1-.36.683c-.059.092-.136.261-.224.415.228.117.459.231.69.341.356-.213.7-.518,1.035-.727a8.078,8.078,0,0,1-.686.888l.246.11.015.007a3.689,3.689,0,0,1,.5-.437,3.2,3.2,0,0,1-.132.558c.143.059.363.264.506.286s.018.063.169-.059a1.33,1.33,0,0,0,.356-.738,1.368,1.368,0,0,1-.283-.466.855.855,0,0,1,.341.173c.029-.147.051-.286.077-.393l.022-.1c-.158-.154-.334-.29-.5-.433a5.079,5.079,0,0,0-.745-.539,5.684,5.684,0,0,1,1.079.349c.066.018.151.04.239.059,0-.11,0-.22,0-.33-.216-.147-.488-.382-.635-.462a6.627,6.627,0,0,1-1.05-.73c-.172-.143-.3-.356-.484-.484.407.268.906.364,1.3.657.3.224.565.484.844.73a4.489,4.489,0,0,0-.228-.95c-.224-.092-.462-.22-.617-.279-.349-.136-.686-.3-1.035-.426a3.082,3.082,0,0,1-1.141-.562,1.569,1.569,0,0,1,.363.066c.286.044.561-.055.844-.007a3.592,3.592,0,0,1,1.336.616,6.524,6.524,0,0,0-.411-.712,10.933,10.933,0,0,1-2.345-.675,5.832,5.832,0,0,1,1.567-.283c-.092-.1-.187-.191-.286-.279-.319.011-.679-.073-.987-.048a3.314,3.314,0,0,1-.76.044c.066-.011.136-.026.195-.033.011-.019.018-.026.029-.044a.331.331,0,0,1-.1-.07.372.372,0,0,1-.044-.055c.044-.026.1-.051.143-.073.081.084.154.165.209.228h0c.022,0,.055,0,.077-.007a2.031,2.031,0,0,1,.206-.026,2.987,2.987,0,0,0,.5-.018,2.808,2.808,0,0,0-.121-.562,2.294,2.294,0,0,0,.33.562,2.616,2.616,0,0,0,.84.055c.026-.029-.448-1.075-.444-1.079s.374.433.51.635a3.961,3.961,0,0,0,.29.492.713.713,0,0,0,.261.048,2.822,2.822,0,0,0-.066-.837,4.91,4.91,0,0,0,.272.661,1.061,1.061,0,0,0,.125.25,2.506,2.506,0,0,0,.716.213c.015-.007.018-.469.018-.469s.242.4.338.6l.007.007h.007c.25.1.7.352.749.338.015-.007.033-.521.04-.774a1.276,1.276,0,0,1,.007-.143s.323.481.451.727c.062.117.176.521.308.624a3.863,3.863,0,0,0,.573.345l.117-.767a2.809,2.809,0,0,0,.228.987,4.13,4.13,0,0,0,.624.418l.04.029.059-.349a2.985,2.985,0,0,0,.194.532,2.666,2.666,0,0,0,.543.44c.018,0,.084-.9.084-.9a4.584,4.584,0,0,0,.25,1.171,2.258,2.258,0,0,0,.539.415s-.209-1.233-.224-1.369c.048.1.422.9.558,1.307.018.059.037.235.077.268a.355.355,0,0,0,.231,0C476.622,1223.15,476.717,1222.647,476.49,1222.291Zm-11.1-.246a7,7,0,0,1-.51.481c0-.18,0-.36-.007-.536a3.444,3.444,0,0,1,.91-.319C465.638,1221.726,465.484,1221.95,465.392,1222.045Zm.462-4.143a1.238,1.238,0,0,0-.11-.066c-.011-.051-.015-.1-.022-.151.011,0,.022-.011.033-.015.081.106.151.206.18.253Zm1.879-3.108c.048.019.1.041.139.063a.825.825,0,0,1,.018.092A1.458,1.458,0,0,0,467.733,1214.793Zm.165-1.1a2.913,2.913,0,0,1,.393.132c.114.257.209.547.264.683a2.167,2.167,0,0,1-.444-.562A2.352,2.352,0,0,0,467.9,1213.7Zm.363,3.82.132-.077a1.191,1.191,0,0,1,.1.3S468.39,1217.641,468.262,1217.517Zm.712-.275a1.6,1.6,0,0,0-.356-.363.507.507,0,0,0-.125-.03c-.161-.3-.316-.609-.481-.921a6.744,6.744,0,0,1,.587.624c.136.154.294.327.422.5a.37.37,0,0,1,.051-.029c.1.206.345.752.352.789C469.389,1217.766,469.091,1217.4,468.974,1217.241Z"
                        transform="translate(-286.451 -1119.855)" fill="#122758" />
                    <path id="Path_14" data-name="Path 14"
                        d="M624.154,1222.291a7.593,7.593,0,0,0-.734-.749,3.673,3.673,0,0,0,.459.125,1.915,1.915,0,0,0-.3-.488c-.051-.026-.4-.029-.429-.07s.205-.2.2-.25a1.368,1.368,0,0,0-.327-.4c-.026,0-.286.239-.293.239a1.822,1.822,0,0,0-.051-.617,1.894,1.894,0,0,0-.462-.444c-.022,0-.2.429-.209.429a2.223,2.223,0,0,0-.125-.719,2.487,2.487,0,0,0-.587-.448,5.186,5.186,0,0,1-.165.492.8.8,0,0,0-.591-.991,4.273,4.273,0,0,1-.121.595c-.015,0-.257-.5-.4-.749a.74.74,0,0,0-.14-.209,3.546,3.546,0,0,0-1.024-.466,3.52,3.52,0,0,1,0,.481,5.8,5.8,0,0,1-.407-.458,1.328,1.328,0,0,0-.257-.26,2.14,2.14,0,0,0-.433-.136,2.33,2.33,0,0,0-.264-.073,3.531,3.531,0,0,1,.018.4c-.018,0-.33-.433-.433-.5a1.1,1.1,0,0,0-.246-.062l.07-.044c-.176-.363-.257-.763-.4-1.141a4.585,4.585,0,0,0,.466.727,1.9,1.9,0,0,0,.209.25c.2-.121.4-.239.6-.352-.1-.194-.158-.444-.242-.638.114.22.363.308.536.47h.007l.007,0c.209-.117.415-.235.624-.356-.136-.294-.44-1.017-.51-1.156.206.147.426.26.635.4.1.07.385.36.539.353.158-.1.312-.206.462-.316-.216-.22-.279-.66-.455-.917a2.451,2.451,0,0,0,.73.712c.161-.128.323-.264.477-.407l.029-.029a1.5,1.5,0,0,1-.224-.363.993.993,0,0,0,.415.191c.132-.114.275-.242.418-.382-.154-.275-.422-.539-.576-.774a3.036,3.036,0,0,0,.822.521,2.955,2.955,0,0,0,.352-.466,8.566,8.566,0,0,1-.925-.609c.224-.092.683.1.917.128.044.007.114.022.184.04a.989.989,0,0,0,.018-.312.771.771,0,0,0-.583-.7,2.8,2.8,0,0,1-.569.422,1.455,1.455,0,0,0,.158-.492,2.573,2.573,0,0,0-.338,0,1.648,1.648,0,0,1-.132.484,2.7,2.7,0,0,1-.1-.462c-.1.015-.2.03-.3.048a3.5,3.5,0,0,0,.062.58c-.1-.128-.231-.363-.36-.517-.121.029-.246.063-.371.1.04.231.106.47.165.686-.158-.18-.272-.415-.422-.609-.147.04-.29.088-.433.136a2.317,2.317,0,0,1,.187.745,3.871,3.871,0,0,0-.4-.668c-.106.04-.209.077-.312.117a2.853,2.853,0,0,1,.227.844,3.6,3.6,0,0,1-.525-.532.881.881,0,0,0-.151-.136c-.246.1-.473.2-.675.286a4.629,4.629,0,0,1,.18.657c-.143.011-.264-.191-.385-.3a1.94,1.94,0,0,0-.224-.165c-.107.048-.191.088-.253.114-.2-.18-.415-.356-.587-.528a8.282,8.282,0,0,1,.972.481c.022-.077.044-.151.066-.228v-.014a3.631,3.631,0,0,1-.5-.371,3.03,3.03,0,0,1,.558.044v0c.033-.128.194-.345.191-.474s.055-.022-.084-.139a1.474,1.474,0,0,0-.774-.213,1.252,1.252,0,0,1-.4.3.748.748,0,0,1,.107-.319c-.147,0-.283-.008-.389-.015-.033,0-.066,0-.1-.007-.121.158-.224.327-.33.492a4.1,4.1,0,0,0-.393.712,4.469,4.469,0,0,1,.15-.976c.007-.059.011-.136.015-.216-.106.011-.209.026-.316.044-.1.206-.286.47-.338.606a5.307,5.307,0,0,1-.521,1c-.11.169-.294.308-.385.484.187-.389.194-.833.411-1.211.165-.282.367-.55.558-.822a4.535,4.535,0,0,0-.877.315c-.048.209-.132.429-.161.569-.07.319-.169.631-.231.954a2.447,2.447,0,0,1-.345,1.053,1.161,1.161,0,0,1,0-.319c-.007-.253-.15-.481-.154-.73a2.911,2.911,0,0,1,.363-1.233,6.1,6.1,0,0,0-.613.448,8.485,8.485,0,0,1-.246,2.11,4.762,4.762,0,0,1-.539-1.317c-.077.092-.154.187-.224.282.066.275.048.6.125.863.055.194.261.609.14.8a2.655,2.655,0,0,1-.668-1.017c-.073.14-.139.279-.194.415-.037.088-.077.173-.114.261.107.246.2.5.3.723a3.285,3.285,0,0,1,.385.98l0,0a4.567,4.567,0,0,1-.4-.481c-.062-.216-.132-.433-.209-.646-.25.018-.5.04-.738.051a5.846,5.846,0,0,0,.609-.393c-.084-.209-.176-.415-.279-.62-.007-.011-.011-.022-.018-.033a3.114,3.114,0,0,1-.547.081c.125-.173.239-.33.349-.488-.128-.268-.264-.539-.4-.815a2.809,2.809,0,0,0-.84.26,6.519,6.519,0,0,0,.459-.591,1.681,1.681,0,0,0,.084-.217c-.088-.15-.18-.3-.275-.448a2.717,2.717,0,0,0-.554.29c.11-.18.25-.374.36-.576a5.291,5.291,0,0,0-.734-.829c-.088.15-.165.312-.242.47-.04.084-.081.169-.125.25a3.841,3.841,0,0,0,.059-.969c-.033-.022-.066-.044-.1-.066a4.474,4.474,0,0,0-.565-.33c-.172.275-.525.576-.451.928a9.694,9.694,0,0,1-.224-1.226,8.973,8.973,0,0,0-1-.308,2.281,2.281,0,0,0-.264.444,1.056,1.056,0,0,1-.18-.54l-.169-.033c-.125-.022-.246-.04-.367-.059a2.432,2.432,0,0,0-.132.94c-.081-.334-.183-.668-.294-.991-.1-.011-.187-.018-.275-.026-.018.327-.037.653-.037.976-.217-.334-.448-.675-.679-1a5.619,5.619,0,0,0-.8.059,2.733,2.733,0,0,0,.235.543,3.285,3.285,0,0,1-.6-.323,2.015,2.015,0,0,1-.165-.128,14.974,14.974,0,0,0-2.088.664,2.292,2.292,0,0,0,.712.312,1.956,1.956,0,0,1,.44.293c.374.044.749.11,1.123.191-.25.029-.51.066-.774.106a7.413,7.413,0,0,1,.569.554,3.234,3.234,0,0,1,.466-.18c.506-.136,1.031-.2,1.534-.356a15.84,15.84,0,0,0-1.424.822c-.066.029-.132.063-.194.1a3.243,3.243,0,0,0,.393.315c.136.092.275.176.411.264.462-.2.94-.334,1.406-.521a.536.536,0,0,1,.253-.106c-.085.041-.169.073-.253.106-.242.172-.514.5-.657.62-.081.07-.161.136-.242.2.235.139.473.271.712.4a6.142,6.142,0,0,1,.727-.543c.07-.044.143-.088.216-.125a1.54,1.54,0,0,0-.216.242c-.143.187-.272.4-.418.594.139.073.279.151.418.228.077.044.158.088.239.132.253-.1.521-.165.679-.231a5.288,5.288,0,0,1,1.061-.4,13.01,13.01,0,0,1-.9,1.108c.125.077.25.151.374.228.048-.041.1-.081.139-.125.114-.11.235-.319.345-.371-.051.1-.121.213-.176.316s-.1.183-.151.279c.172.11.341.22.51.338.128-.037.253-.07.341-.1a5.7,5.7,0,0,0,.55-.271,1.328,1.328,0,0,1,.767-.235,4.961,4.961,0,0,1-.767,1.046c-.04.048-.084.1-.128.139l.015.011c.04.033.077.066.114.1.22.191.429.393.631.6a3.109,3.109,0,0,0,.741-.1c-.2.081-.4.169-.594.261.106.11.209.224.312.337.239-.088.5-.154.686-.206-.107.114-.209.224-.312.338a2.307,2.307,0,0,0-.283-.088l-.062-.011a6.925,6.925,0,0,1,.554,1.266c-.393-.224-.62-.756-.87-1.112a2.949,2.949,0,0,0-.239-.275,4.23,4.23,0,0,0-.565-.077,2.3,2.3,0,0,0-.275-.007,4.114,4.114,0,0,0-.55.062c.176.195.334.422.492.58.107.107.22.209.334.308a5.983,5.983,0,0,1,.617.6,2.706,2.706,0,0,1-.617-.228c-.279-.139-.543-.312-.8-.466-.315-.187-.682-.36-1.035-.547-.139.037-.279.073-.418.106-.22.055-.444.117-.668.191a3.983,3.983,0,0,1,1.409,1.09c-.312.128-.9-.227-1.182-.334a2.715,2.715,0,0,0-.319-.1c-.319-.077-.664-.125-.965-.224-.161.077-.319.158-.477.246a6.74,6.74,0,0,1,1.442.683c.161.1.312.194.451.29q-.226.027-.451.044a16.66,16.66,0,0,1-2.8-.1,8.272,8.272,0,0,0-.807.752,4.858,4.858,0,0,1,1.949-.271c.382.051.7.282,1.079.338a2.121,2.121,0,0,1,.488.062,4.191,4.191,0,0,1-1.674.272c-.5.029-.994.106-1.494.143-.216.015-.573.088-.9.114a5.942,5.942,0,0,0-.661,1.13c.451-.206.9-.433,1.361-.605.617-.224,1.292-.154,1.919-.338-.279.092-.532.316-.811.433a8.965,8.965,0,0,1-1.626.529c-.217.044-.653.242-.987.345a4.325,4.325,0,0,0-.132.422c.125.007.239.015.33.015a7.427,7.427,0,0,1,1.512-.025,6.1,6.1,0,0,0-1.16.4c-.272.114-.55.22-.811.356,0,.044-.007.088-.011.136-.007.147-.029.33-.055.529a1.23,1.23,0,0,1,.506-.085,1.816,1.816,0,0,1-.543.485,1.785,1.785,0,0,0,.169,1.086c.147.209-.007.11.191.14a4.261,4.261,0,0,0,.76-.173h0a4.2,4.2,0,0,1,.048-.763,5.186,5.186,0,0,1,.462.749h.018c.121-.015.242-.033.36-.048a10.552,10.552,0,0,1-.532-1.4c.341.393.668.917,1.042,1.328.338-.052.675-.106,1.013-.169-.055-.228-.088-.474-.125-.613a3.125,3.125,0,0,1-.2-1.017,6.525,6.525,0,0,0,1.391,1.417c.191-.041.382-.084.573-.128.048-.011.1-.022.151-.037a1.035,1.035,0,0,0,.1-.022c-.033-.055-.07-.106-.1-.161a2.977,2.977,0,0,1-.4-.87,3.285,3.285,0,0,0,.4.448c.161.161.352.341.514.488.2-.048.4-.1.591-.161a7.123,7.123,0,0,1-.569-.91c-.147-.26-.411-.562-.536-.844a.884.884,0,0,1-.062-.173c.022.019.044.037.062.055.418.36.734.862,1.171,1.215.114.092.36.271.536.407a3.933,3.933,0,0,0,.8-.58c-.044-.077-.084-.15-.117-.205a9.6,9.6,0,0,1-.536-.921,1.933,1.933,0,0,0-.356-.631,12.861,12.861,0,0,1,1.523,1.138l.066.044.385-.418c.044-.044.084-.088.125-.132-.169-.514-.308-1.042-.521-1.534.224.246.466.484.7.719a3.373,3.373,0,0,0,.286.246c.143-.187.286-.378.426-.569a2.982,2.982,0,0,1-.352-.958c.213.206.4.418.609.62a8.3,8.3,0,0,1,.8-.917,10.533,10.533,0,0,1-.371-1.009,1.533,1.533,0,0,0,.47.334c.169,5.949,0,14.844-.242,22.768-.073,2.426-.154,4.76-.231,6.892-.224,6.132-.429,10.591-.437,10.7l1.916.092c.007-.114.216-4.613.44-10.793.077-2.132.158-4.466.228-6.892.2-6.5.349-13.641.3-19.3a2.859,2.859,0,0,0,.235.279c.158-.062.374-.136.473-.176.411-.165.76-.481,1.16-.642a3.507,3.507,0,0,1-.65.6,5.241,5.241,0,0,1-.606.529c.125.084.257.165.389.242a5.771,5.771,0,0,0,.859-.466,2.8,2.8,0,0,1-.587.627c.059.033.114.063.169.1.128.073.253.147.382.213a4.718,4.718,0,0,0,1.3-.708,2.337,2.337,0,0,1-.36.683c-.059.092-.136.261-.224.415.228.117.455.231.69.341.356-.213.7-.518,1.031-.727a8,8,0,0,1-.683.888l.246.11.011.007a3.691,3.691,0,0,1,.5-.437,2.9,2.9,0,0,1-.132.558h0c.14.059.36.264.506.286s.015.063.165-.059a1.284,1.284,0,0,0,.356-.738,1.43,1.43,0,0,1-.282-.466.869.869,0,0,1,.345.173c.026-.147.048-.286.077-.393l.022-.1c-.162-.154-.334-.29-.5-.433a5.076,5.076,0,0,0-.745-.539,5.768,5.768,0,0,1,1.079.349c.063.018.147.04.239.059,0-.11,0-.22,0-.33-.216-.147-.488-.382-.631-.462a6.466,6.466,0,0,1-1.05-.73c-.172-.143-.3-.356-.488-.484.411.268.91.364,1.3.657.294.224.565.484.844.73a4.485,4.485,0,0,0-.227-.95c-.228-.092-.462-.22-.617-.279-.349-.136-.686-.3-1.039-.426a3.067,3.067,0,0,1-1.138-.562,1.642,1.642,0,0,1,.363.066c.283.044.562-.055.844-.007a3.592,3.592,0,0,1,1.336.616,6.012,6.012,0,0,0-.415-.712,10.964,10.964,0,0,1-2.341-.675,5.806,5.806,0,0,1,1.567-.283c-.1-.1-.191-.191-.286-.279-.319.011-.683-.073-.991-.048a3.268,3.268,0,0,1-.756.044c.066-.011.136-.026.191-.033.011-.019.018-.026.029-.044a.281.281,0,0,1-.1-.07.379.379,0,0,1-.048-.055c.048-.026.1-.051.147-.073.077.084.154.165.209.228h0c.018,0,.051,0,.077-.007a1.8,1.8,0,0,1,.205-.026,3.008,3.008,0,0,0,.5-.018,3.089,3.089,0,0,0-.121-.562,2.387,2.387,0,0,0,.327.562,2.621,2.621,0,0,0,.84.055c.029-.029-.448-1.075-.44-1.079s.371.433.51.635a4.551,4.551,0,0,0,.286.492.73.73,0,0,0,.264.048,2.959,2.959,0,0,0-.066-.837,4.918,4.918,0,0,0,.272.661.932.932,0,0,0,.121.25,2.525,2.525,0,0,0,.719.213c.015-.007.015-.469.015-.469s.246.4.338.6l.011.007h0c.253.1.7.352.749.338.026-.011.044-.917.048-.917s.323.481.455.727c.062.117.173.521.3.624a4.073,4.073,0,0,0,.573.345l.117-.767a2.752,2.752,0,0,0,.231.987,4.128,4.128,0,0,0,.624.418.175.175,0,0,0,.04.029l.059-.349a2.914,2.914,0,0,0,.191.532,2.773,2.773,0,0,0,.547.44c.018,0,.084-.9.084-.9a4.584,4.584,0,0,0,.25,1.171,2.326,2.326,0,0,0,.536.415s-.224-1.314-.224-1.376c.037.074.422.9.558,1.314.022.059.04.235.081.268a.344.344,0,0,0,.228,0C624.283,1223.15,624.378,1222.647,624.154,1222.291Zm-11.1-.246c-.165.173-.334.327-.514.481,0-.18,0-.36,0-.536a3.466,3.466,0,0,1,.906-.319C613.3,1221.726,613.148,1221.95,613.057,1222.045Zm.462-4.143c-.033-.018-.07-.044-.11-.066-.011-.051-.018-.1-.026-.151l.037-.015c.081.106.147.206.176.253Zm1.879-3.108c.048.019.092.041.139.063.007.03.011.063.018.092A1.893,1.893,0,0,0,615.4,1214.793Zm.165-1.1a2.91,2.91,0,0,1,.393.132c.11.257.209.547.264.683a2.094,2.094,0,0,1-.444-.562A2.858,2.858,0,0,0,615.563,1213.7Zm.36,3.82.132-.077a1.291,1.291,0,0,1,.1.3Zm.712-.275a1.587,1.587,0,0,0-.352-.363.553.553,0,0,0-.125-.03c-.165-.3-.319-.609-.481-.921a7.287,7.287,0,0,1,.587.624c.136.154.29.327.422.5a.335.335,0,0,1,.048-.029c.092.2.327.712.356.785C617.042,1217.755,616.752,1217.392,616.635,1217.241Z"
                        transform="translate(-379.923 -1119.855)" fill="#122758" />
                    <path id="Path_15" data-name="Path 15"
                        d="M404.871,1222.291a7.254,7.254,0,0,0-.73-.749,3.669,3.669,0,0,0,.459.125,1.913,1.913,0,0,0-.3-.488c-.051-.026-.4-.029-.429-.07s.206-.2.2-.25a1.368,1.368,0,0,0-.327-.4c-.026,0-.286.239-.294.239a1.82,1.82,0,0,0-.051-.617,2.135,2.135,0,0,0-.341-.36.384.384,0,0,0-.121-.084c-.007,0-.026.033-.048.084-.062.125-.158.345-.161.345s0-.169-.026-.345a1.03,1.03,0,0,0-.1-.374,2.49,2.49,0,0,0-.587-.448,5.152,5.152,0,0,1-.165.492,1.871,1.871,0,0,0-.143-.7,1.892,1.892,0,0,0-.448-.286,4.265,4.265,0,0,1-.121.595c-.015,0-.257-.5-.4-.749a.825.825,0,0,0-.139-.209,2.37,2.37,0,0,0-.521-.283,2.087,2.087,0,0,0-.5-.184,3.491,3.491,0,0,1,0,.481,3.319,3.319,0,0,1-.319-.356c-.033-.037-.062-.073-.088-.1a1.33,1.33,0,0,0-.257-.26,2.139,2.139,0,0,0-.433-.136,2.326,2.326,0,0,0-.264-.073,3.546,3.546,0,0,1,.018.4c-.018,0-.33-.433-.433-.5a1.1,1.1,0,0,0-.246-.062l.07-.044c-.176-.363-.257-.763-.4-1.141a4.58,4.58,0,0,0,.466.727,1.9,1.9,0,0,0,.209.25c.2-.121.4-.239.6-.352-.1-.194-.158-.444-.242-.638.114.22.363.308.536.47h.007l.007,0c.15-.084.3-.169.444-.253.059-.033.121-.066.18-.1-.048-.1-.114-.246-.18-.407-.136-.308-.283-.657-.33-.749.106.077.22.143.33.209s.206.125.3.191.36.33.514.349a.068.068,0,0,0,.026,0c.158-.1.312-.206.462-.316-.216-.22-.279-.66-.455-.917a2.449,2.449,0,0,0,.73.712c.161-.128.323-.264.477-.407a.222.222,0,0,1,.029-.029,1.494,1.494,0,0,1-.224-.363c.088.11.3.15.415.191.132-.114.275-.242.418-.382-.154-.275-.422-.539-.576-.774a3.036,3.036,0,0,0,.822.521,2.947,2.947,0,0,0,.352-.466,8.22,8.22,0,0,1-.925-.609c.224-.092.683.1.917.128.044.007.114.022.183.04a.89.89,0,0,0,.015-.312.763.763,0,0,0-.58-.7,2.794,2.794,0,0,1-.569.422,1.456,1.456,0,0,0,.158-.492,2.573,2.573,0,0,0-.338,0,1.648,1.648,0,0,1-.132.484,2.7,2.7,0,0,1-.1-.462c-.1.015-.2.03-.3.048a3.51,3.51,0,0,0,.062.58c-.1-.128-.231-.363-.36-.517-.125.029-.246.063-.371.1.04.231.106.47.165.686a3.868,3.868,0,0,1-.3-.44c-.037-.059-.077-.114-.117-.169-.147.04-.29.088-.433.136a2.315,2.315,0,0,1,.187.745,3.86,3.86,0,0,0-.4-.668.493.493,0,0,1-.051.019l-.26.1a2.853,2.853,0,0,1,.228.844,3.6,3.6,0,0,1-.525-.532.887.887,0,0,0-.15-.136c-.246.1-.473.2-.675.286a4.637,4.637,0,0,1,.18.657c-.143.011-.264-.191-.385-.3a1.93,1.93,0,0,0-.224-.165c-.106.048-.191.088-.253.114-.2-.18-.415-.356-.587-.528a8.292,8.292,0,0,1,.973.481c.022-.077.044-.151.066-.228v-.014a3.631,3.631,0,0,1-.5-.371,3.03,3.03,0,0,1,.558.044v0c.033-.128.195-.345.191-.474s.055-.022-.084-.139a1.475,1.475,0,0,0-.774-.213,1.253,1.253,0,0,1-.4.3.7.7,0,0,1,.106-.319c-.147,0-.283-.008-.389-.015-.033,0-.066,0-.1-.007-.121.158-.224.327-.33.492a4.108,4.108,0,0,0-.393.712,4.256,4.256,0,0,1,.15-.976c.007-.059.011-.136.015-.216-.106.011-.213.026-.316.044-.1.206-.286.47-.338.606a5.306,5.306,0,0,1-.521,1c-.11.169-.294.308-.385.484.187-.389.195-.833.411-1.211.165-.282.367-.55.558-.822a4.656,4.656,0,0,0-.881.315c-.044.209-.128.429-.158.569-.07.319-.169.631-.231.954a2.449,2.449,0,0,1-.345,1.053,1.161,1.161,0,0,1,0-.319c-.007-.253-.15-.481-.154-.73a2.909,2.909,0,0,1,.363-1.233,6.1,6.1,0,0,0-.613.448,8.485,8.485,0,0,1-.246,2.11,4.758,4.758,0,0,1-.539-1.317c-.081.092-.154.187-.224.282.066.275.048.6.125.863.055.194.261.609.139.8a2.655,2.655,0,0,1-.668-1.017c-.073.14-.139.279-.194.415-.037.088-.077.173-.114.261.106.246.2.5.3.723a3.283,3.283,0,0,1,.385.98l0,0a4.566,4.566,0,0,1-.4-.481c-.062-.216-.132-.433-.209-.646-.25.018-.5.04-.738.051a5.852,5.852,0,0,0,.609-.393c-.084-.209-.176-.415-.279-.62-.007-.011-.011-.022-.018-.033a3.129,3.129,0,0,1-.429.07.668.668,0,0,1-.117.011l.117-.161c.081-.114.158-.22.231-.327-.073-.154-.15-.312-.231-.47-.055-.114-.114-.231-.173-.345l-.147.033a2.208,2.208,0,0,0-.694.228,6.53,6.53,0,0,0,.459-.591,1.681,1.681,0,0,0,.084-.217c-.088-.15-.18-.3-.275-.448a2.719,2.719,0,0,0-.554.29c.11-.18.25-.374.36-.576a5.288,5.288,0,0,0-.734-.829c-.136.231-.242.481-.367.719a3.836,3.836,0,0,0,.059-.969c-.033-.022-.066-.044-.1-.066a4.747,4.747,0,0,0-.565-.33c-.172.275-.525.576-.451.928a9.683,9.683,0,0,1-.224-1.226,8.973,8.973,0,0,0-1-.308,2.278,2.278,0,0,0-.264.444,1.055,1.055,0,0,1-.18-.54c-.18-.037-.36-.066-.536-.092a2.434,2.434,0,0,0-.132.94,10.226,10.226,0,0,0-.3-.991c-.092-.011-.184-.018-.275-.026-.015.327-.033.653-.037.976-.213-.334-.444-.675-.675-1a5.619,5.619,0,0,0-.8.059,2.729,2.729,0,0,0,.235.543,3.291,3.291,0,0,1-.6-.323,2.015,2.015,0,0,1-.165-.128,14.978,14.978,0,0,0-2.088.664,2.293,2.293,0,0,0,.712.312,1.955,1.955,0,0,1,.44.293c.374.044.749.11,1.123.191-.25.029-.514.066-.774.106a7.4,7.4,0,0,1,.569.554,3.238,3.238,0,0,1,.466-.18c.506-.136,1.031-.2,1.534-.356a15.829,15.829,0,0,0-1.424.822c-.066.029-.132.063-.195.1a3.248,3.248,0,0,0,.393.315c.136.092.275.176.411.264.462-.2.939-.334,1.406-.521a.537.537,0,0,1,.253-.106c-.084.041-.169.073-.253.106a8.84,8.84,0,0,0-.657.62c-.081.07-.161.136-.242.2.235.139.473.271.712.4a5.215,5.215,0,0,1,.943-.668,6.047,6.047,0,0,0-.635.837c.216.117.437.239.653.36.257-.1.525-.165.683-.231a5.283,5.283,0,0,1,1.061-.4,13.01,13.01,0,0,1-.9,1.108c.125.077.25.151.374.228.048-.041.1-.081.139-.125.114-.11.235-.319.345-.371-.051.1-.121.213-.176.316s-.1.183-.15.279c.172.11.341.22.51.338.128-.037.253-.07.341-.1.319-.11,1.024-.6,1.318-.507a5.35,5.35,0,0,1-.9,1.186l.015.011a9.576,9.576,0,0,1,.741.7,3.114,3.114,0,0,0,.745-.1c-.2.081-.4.169-.594.261.106.11.209.224.312.337.169-.062.349-.114.506-.158l.18-.048c-.062.066-.121.128-.18.195l-.132.143a2.31,2.31,0,0,0-.283-.088l-.062-.011a7.474,7.474,0,0,1,.477,1.035q.044.115.077.231a.5.5,0,0,1-.077-.055,4.015,4.015,0,0,1-.793-1.057,2.922,2.922,0,0,0-.239-.275,3.578,3.578,0,0,0-.84-.084,4.113,4.113,0,0,0-.55.062c.176.195.33.422.488.58.312.308.675.576.954.91a5.1,5.1,0,0,1-1.42-.694c-.316-.187-.686-.36-1.035-.547-.139.037-.279.073-.418.106-.22.055-.444.117-.668.191a3.982,3.982,0,0,1,1.409,1.09c-.312.128-.9-.227-1.182-.334-.389-.15-.881-.187-1.284-.323-.161.077-.319.158-.477.246a7.619,7.619,0,0,1,1.894.972,14.624,14.624,0,0,1-3.255-.051q-.22.182-.429.374c-.128.121-.257.25-.378.378a4.858,4.858,0,0,1,1.949-.271c.382.051.7.282,1.079.338a2.12,2.12,0,0,1,.488.062,4.191,4.191,0,0,1-1.673.272c-.5.029-.995.106-1.494.143-.22.015-.573.088-.9.114a5.942,5.942,0,0,0-.661,1.13c.451-.206.9-.433,1.362-.605.617-.224,1.292-.154,1.919-.338-.283.092-.532.316-.811.433a8.969,8.969,0,0,1-1.626.529c-.217.044-.653.242-.987.345a4.308,4.308,0,0,0-.132.422c.125.007.239.015.33.015a7.427,7.427,0,0,1,1.512-.025,6.1,6.1,0,0,0-1.16.4c-.272.114-.55.22-.811.356,0,.044-.007.088-.011.136-.007.147-.029.33-.055.529a1.229,1.229,0,0,1,.506-.085,1.818,1.818,0,0,1-.543.485,1.785,1.785,0,0,0,.169,1.086c.147.209-.007.11.191.14a4.26,4.26,0,0,0,.76-.173h0a4.2,4.2,0,0,1,.048-.763,5.186,5.186,0,0,1,.462.749h.018c.121-.015.239-.033.36-.048a10.562,10.562,0,0,1-.532-1.4c.341.393.668.917,1.042,1.328.338-.052.675-.106,1.013-.169-.055-.228-.088-.474-.125-.613a3.125,3.125,0,0,1-.2-1.017,6.526,6.526,0,0,0,1.391,1.417c.191-.041.382-.084.569-.128.084-.019.172-.037.257-.059a3.461,3.461,0,0,1-.506-1.031,7.9,7.9,0,0,0,.917.936c.2-.048.4-.1.591-.161a7.13,7.13,0,0,1-.569-.91,4.821,4.821,0,0,1-.6-1.017c.448.363.774.9,1.233,1.27.114.092.356.271.536.407a3.932,3.932,0,0,0,.8-.58c-.044-.077-.084-.15-.117-.205a9.6,9.6,0,0,1-.536-.921,1.931,1.931,0,0,0-.356-.631,15.3,15.3,0,0,1,1.585,1.182c.132-.14.264-.283.389-.418.044-.044.084-.088.125-.132-.169-.514-.308-1.042-.521-1.534.224.246.466.484.7.719a3.363,3.363,0,0,0,.286.246c.143-.187.286-.378.426-.569a2.893,2.893,0,0,1-.352-.958c.169.161.319.327.481.488.04.044.084.088.128.132a8.311,8.311,0,0,1,.8-.917,10.536,10.536,0,0,1-.371-1.009,1.534,1.534,0,0,0,.47.334c.044,1.585.066,3.384.066,5.314,0,4-.073,8.58-.191,13.079-.169,6.756-.418,13.329-.591,17.5-.11,2.7-.191,4.4-.195,4.466l1.916.092c0-.07.084-1.8.2-4.558.165-4.055.407-10.342.576-16.863.121-4.7.209-9.523.206-13.718,0-.627,0-1.244-.007-1.846a2.428,2.428,0,0,0,.235.279c.158-.062.374-.136.473-.176.407-.165.76-.481,1.16-.642a3.506,3.506,0,0,1-.65.6,5.23,5.23,0,0,1-.606.529c.125.084.257.165.385.242a5.664,5.664,0,0,0,.862-.466,2.794,2.794,0,0,1-.587.627c.059.033.114.063.169.1.128.073.253.147.382.213a4.719,4.719,0,0,0,1.3-.708,2.338,2.338,0,0,1-.36.683c-.059.092-.136.261-.224.415.1.055.209.106.312.158.125.062.25.125.378.184a3.323,3.323,0,0,0,.279-.184c.257-.184.51-.389.752-.543-.088.11-.228.33-.389.543a2.49,2.49,0,0,1-.294.345l.246.11.011.007a3.689,3.689,0,0,1,.5-.437,3.2,3.2,0,0,1-.132.558h0c.14.059.36.264.506.286s.015.063.165-.059a1.284,1.284,0,0,0,.356-.738c-.018-.026-.04-.048-.059-.073a1.275,1.275,0,0,1-.224-.393.869.869,0,0,1,.345.173c.026-.147.048-.286.073-.393a.954.954,0,0,0,.026-.1c-.161-.154-.334-.29-.5-.433a5.083,5.083,0,0,0-.745-.539,5.77,5.77,0,0,1,1.079.349c.062.018.147.04.235.059a2.465,2.465,0,0,0,0-.33c-.216-.147-.488-.382-.631-.462a6.464,6.464,0,0,1-1.05-.73c-.172-.143-.3-.356-.488-.484.411.268.91.364,1.3.657.294.224.562.484.844.73a4.477,4.477,0,0,0-.227-.95c-.228-.092-.466-.22-.617-.279-.349-.136-.686-.3-1.039-.426a3.066,3.066,0,0,1-1.138-.562,1.643,1.643,0,0,1,.363.066c.283.044.562-.055.844-.007a3.592,3.592,0,0,1,1.336.616,6,6,0,0,0-.415-.712,10.963,10.963,0,0,1-2.341-.675,5.806,5.806,0,0,1,1.567-.283c-.1-.1-.191-.191-.286-.279-.319.011-.683-.073-.991-.048a3.268,3.268,0,0,1-.756.044c.066-.011.136-.026.191-.033.011-.019.018-.026.029-.044a.279.279,0,0,1-.1-.07.379.379,0,0,1-.048-.055c.048-.026.1-.051.147-.073.077.084.154.165.206.228h.007c.018,0,.051,0,.077-.007a1.8,1.8,0,0,1,.206-.026,3.008,3.008,0,0,0,.5-.018,3.084,3.084,0,0,0-.121-.562,2.387,2.387,0,0,0,.327.562,2.621,2.621,0,0,0,.84.055c.029-.029-.448-1.075-.44-1.079s.371.433.51.635a4.555,4.555,0,0,0,.286.492.731.731,0,0,0,.264.048,2.957,2.957,0,0,0-.066-.837,4.91,4.91,0,0,0,.272.661.932.932,0,0,0,.121.25,2.526,2.526,0,0,0,.719.213c.015-.007.015-.469.015-.469s.246.4.338.6l.007.007h.007c.25.1.7.352.749.338a1.475,1.475,0,0,0,.026-.294c0-.088.007-.187.011-.275,0-.187.007-.349.011-.349s.11.161.228.349c.084.132.172.275.228.378s.172.521.3.624a4.066,4.066,0,0,0,.573.345l.117-.767a2.751,2.751,0,0,0,.231.987,4.131,4.131,0,0,0,.624.418.175.175,0,0,0,.04.029l.059-.349a2.918,2.918,0,0,0,.191.532,2.775,2.775,0,0,0,.547.44c.018,0,.084-.9.084-.9a4.586,4.586,0,0,0,.25,1.171,2.328,2.328,0,0,0,.536.415s-.224-1.314-.224-1.376c.037.074.422.9.558,1.314.022.059.04.235.081.268a.344.344,0,0,0,.228,0C405,1223.15,405.1,1222.647,404.871,1222.291Zm-11.094-.246c-.165.173-.334.327-.514.481,0-.18,0-.36,0-.536a3.468,3.468,0,0,1,.907-.319C394.023,1221.726,393.868,1221.95,393.777,1222.045Zm.462-4.143c-.033-.018-.07-.044-.11-.066-.011-.051-.018-.1-.026-.151l.037-.015c.081.106.147.206.176.253Zm1.879-3.108c.048.019.092.041.139.063.007.03.011.063.018.092A1.893,1.893,0,0,0,396.118,1214.793Zm.161-1.1a2.959,2.959,0,0,1,.4.132c.11.257.209.547.261.683a2.157,2.157,0,0,1-.44-.562A2.377,2.377,0,0,0,396.28,1213.7Zm.363,3.82.132-.077a1.284,1.284,0,0,1,.1.3Zm.712-.275a1.587,1.587,0,0,0-.352-.363.555.555,0,0,0-.125-.03c-.165-.3-.319-.609-.481-.921a7.3,7.3,0,0,1,.587.624c.136.154.29.327.422.5a.338.338,0,0,1,.048-.029c.092.2.327.712.356.785C397.762,1217.755,397.472,1217.392,397.355,1217.241Z"
                        transform="translate(-241.115 -1119.855)" fill="#122758" />
                </g>
            </g>
            <rect id="Rectangle_45" data-name="Rectangle 45" width="680.966" height="330.699"
                transform="translate(12.454 454.71)" fill="none" />
        </g>
    </g>
</svg>
