<svg id="Group_12" data-name="Group 12" xmlns="http://www.w3.org/2000/svg" width="22.499"
    height="29.999" viewBox="0 0 22.499 29.999">
    <g id="Group_11" data-name="Group 11" transform="translate(0)">
        <path id="Path_16" data-name="Path 16"
            d="M1141.174,481.525H1139.3v-2.5a8.75,8.75,0,0,0-17.5,0v2.5h-1.875a.624.624,0,0,0-.625.624v15.625a2.5,2.5,0,0,0,2.5,2.5h17.5a2.5,2.5,0,0,0,2.5-2.5V482.149A.624.624,0,0,0,1141.174,481.525Zm-8.753,13.056a.624.624,0,0,1-.621.694h-2.5a.625.625,0,0,1-.622-.694l.395-3.546a2.471,2.471,0,0,1-1.023-2.01,2.5,2.5,0,0,1,5,0,2.471,2.471,0,0,1-1.023,2.01Zm3.128-13.056h-10v-2.5a5,5,0,1,1,10,0Z"
            transform="translate(-1119.3 -470.275)" fill="#122758" />
    </g>
</svg>
