<svg id="Group_21" data-name="Group 21" xmlns="http://www.w3.org/2000/svg" width="29.636"
    height="20.374" viewBox="0 0 29.636 20.374">
    <g id="Group_14" data-name="Group 14" transform="translate(19.645 3.756)">
        <g id="Group_13" data-name="Group 13">
            <path id="Path_17" data-name="Path 17" d="M1139.844,391.7l9.991,6.316v-12.9Z"
                transform="translate(-1139.844 -385.118)" fill="#122758" />
        </g>
    </g>
    <g id="Group_16" data-name="Group 16" transform="translate(0 3.756)">
        <g id="Group_15" data-name="Group 15">
            <path id="Path_18" data-name="Path 18" d="M1115.127,385.118v12.9l9.991-6.316Z"
                transform="translate(-1115.127 -385.118)" fill="#122758" />
        </g>
    </g>
    <g id="Group_18" data-name="Group 18" transform="translate(0.055)">
        <g id="Group_17" data-name="Group 17">
            <path id="Path_19" data-name="Path 19"
                d="M1142.925,380.392h-25.932a1.83,1.83,0,0,0-1.8,1.576l14.762,9.726,14.762-9.726A1.829,1.829,0,0,0,1142.925,380.392Z"
                transform="translate(-1115.196 -380.392)" fill="#122758" />
        </g>
    </g>
    <g id="Group_20" data-name="Group 20" transform="translate(0.059 11.456)">
        <g id="Group_19" data-name="Group 19">
            <path id="Path_20" data-name="Path 20"
                d="M1133.09,394.808l-2.621,1.726a.931.931,0,0,1-1.019,0l-2.62-1.728-11.629,7.355a1.827,1.827,0,0,0,1.793,1.563h25.931a1.827,1.827,0,0,0,1.793-1.563Z"
                transform="translate(-1115.201 -394.806)" fill="#122758" />
        </g>
    </g>
</svg>
