<svg xmlns="http://www.w3.org/2000/svg" width="56.633" height="58.587" viewBox="0 0 56.633 58.587">
    <g id="Group_47" data-name="Group 47" transform="translate(0)">
        <path id="Path_30" data-name="Path 30"
            d="M1785.4,421.767l-3.062-.766a13.26,13.26,0,0,0-1.015-2.442l1.625-2.707a.977.977,0,0,0-.146-1.194l-3.048-3.051a.976.976,0,0,0-1.194-.147l-2.708,1.625c-.351-.188-.713-.362-1.081-.521a13.527,13.527,0,0,0-1.367-.494l-.766-3.063a.977.977,0,0,0-.947-.74h-4.308a.976.976,0,0,0-.947.74l-.766,3.063a13.253,13.253,0,0,0-2.441,1.015l-2.708-1.625a.976.976,0,0,0-1.194.147l-3.051,3.047a.976.976,0,0,0-.147,1.194l1.625,2.708a13.157,13.157,0,0,0-1.014,2.442l-3.064.765a.977.977,0,0,0-.74.948v4.311a.977.977,0,0,0,.74.947l3.064.765a13.159,13.159,0,0,0,1.014,2.442l-1.625,2.708a.976.976,0,0,0,.147,1.194l3.048,3.048a.976.976,0,0,0,1.193.146l2.708-1.625a13.242,13.242,0,0,0,2.441,1.015l.766,3.062a.979.979,0,0,0,.948.741h4.311a.979.979,0,0,0,.947-.741l.766-3.062a13.241,13.241,0,0,0,2.441-1.015l2.708,1.625a.977.977,0,0,0,1.194-.146l3.047-3.048a.976.976,0,0,0,.147-1.194l-1.625-2.708a13.238,13.238,0,0,0,1.015-2.442l3.062-.765a.976.976,0,0,0,.74-.947v-4.307A.976.976,0,0,0,1785.4,421.767Zm-1.213,4.494-2.874.719a.976.976,0,0,0-.711.707,11.3,11.3,0,0,1-1.249,3.009.98.98,0,0,0,0,1l1.526,2.539-1.966,1.974-2.539-1.526a.976.976,0,0,0-1,0,11.3,11.3,0,0,1-3.009,1.248.976.976,0,0,0-.707.711l-.725,2.872h-2.785l-.719-2.874a.977.977,0,0,0-.707-.711,11.318,11.318,0,0,1-3.01-1.249.979.979,0,0,0-1,0l-2.539,1.526-1.974-1.966,1.526-2.539a.976.976,0,0,0,0-1,11.311,11.311,0,0,1-1.248-3.009.976.976,0,0,0-.711-.707l-2.872-.725v-2.784l2.874-.719a.974.974,0,0,0,.711-.707,11.332,11.332,0,0,1,1.248-3.009.976.976,0,0,0,0-1L1758.2,415.5l1.966-1.974,2.539,1.526a.976.976,0,0,0,1,0,11.31,11.31,0,0,1,3.009-1.248.974.974,0,0,0,.707-.711l.724-2.872h2.785l.719,2.874a.975.975,0,0,0,.707.711,11.264,11.264,0,0,1,3.008,1.248.978.978,0,0,0,1,0l2.539-1.526,1.973,1.966-1.525,2.539a.976.976,0,0,0,0,1,11.344,11.344,0,0,1,1.248,3.009.974.974,0,0,0,.711.707l2.872.725Z"
            transform="translate(-1729.498 -382.876)" fill="#acb5c3" />
        <path id="Path_31" data-name="Path 31"
            d="M1770.938,418.458a7.812,7.812,0,1,0,7.812,7.812A7.812,7.812,0,0,0,1770.938,418.458Zm0,13.672a5.86,5.86,0,1,1,5.86-5.86A5.86,5.86,0,0,1,1770.938,432.13Z"
            transform="translate(-1730.899 -384.277)" fill="#acb5c3" />
        <path id="Path_32" data-name="Path 32" d="M1777.845,392.415h1.953v15.626h-1.953Z"
            transform="translate(-1732.923 -380.696)" fill="#acb5c3" />
        <path id="Path_33" data-name="Path 33"
            d="M1729.667,428.633v3.906a.977.977,0,0,0,.976.977h20.508v-1.954H1731.62v-2.93h11.719a.981.981,0,0,0,.436-.1l3.906-1.954a.976.976,0,0,0,0-1.747l-3.906-1.954a.973.973,0,0,0-.436-.107H1731.62v-33.2h37.11a3.906,3.906,0,0,0,3.906-3.906v-1.953a.977.977,0,0,0-.976-.977h-2.93v1.954h1.953v.976a1.953,1.953,0,1,1-3.906,0v-2.93a1.953,1.953,0,0,1,1.954-1.953h3.906a1.953,1.953,0,0,1,1.954,1.953V405.2h1.953V382.734a3.907,3.907,0,0,0-3.906-3.906h-42.969a3.906,3.906,0,0,0-3.906,3.906v2.93a3.906,3.906,0,0,0,3.906,3.906v33.2h-.976a2.929,2.929,0,1,0,0,5.859Zm-1.953-42.969v-2.93a1.953,1.953,0,0,1,1.953-1.953h35.7a3.863,3.863,0,0,0-.542,1.953v2.93a3.869,3.869,0,0,0,.542,1.954h-35.7A1.953,1.953,0,0,1,1727.714,385.664Zm17.348,40.039-1.954.977h-.746v-1.954h.746Zm-17.348,0a.977.977,0,0,1,.977-.976h11.719v1.954h-11.719A.977.977,0,0,1,1727.714,425.7Z"
            transform="translate(-1725.761 -378.828)" fill="#acb5c3" />
        <path id="Path_34" data-name="Path 34" d="M1725.761,395.812h1.953v19.532h-1.953Z"
            transform="translate(-1725.761 -381.163)" fill="#acb5c3" />
        <path id="Path_35" data-name="Path 35"
            d="M1765.238,396.633V394.68h-12.7a.977.977,0,0,0-.691.286l-1.784,1.784a10.708,10.708,0,0,0-13.911,1.074.978.978,0,0,0,0,1.381l6.906,6.905a.975.975,0,0,0,.69.288h9.766a.976.976,0,0,0,.976-.976,10.7,10.7,0,0,0-2.957-7.381l1.408-1.408Zm-12.751,7.812h-8.33l-5.891-5.891a8.76,8.76,0,0,1,10.4-.405l-2.676,2.675,1.381,1.382,2.789-2.789A8.749,8.749,0,0,1,1752.487,404.446Z"
            transform="translate(-1727.151 -381.008)" fill="#acb5c3" />
        <path id="Path_36" data-name="Path 36" d="M1772.184,394.68h1.953v1.954h-1.953Z"
            transform="translate(-1732.145 -381.008)" fill="#acb5c3" />
        <path id="Path_37" data-name="Path 37" d="M1738.216,411.664h1.953v1.954h-1.953Z"
            transform="translate(-1727.474 -383.343)" fill="#acb5c3" />
        <path id="Path_38" data-name="Path 38" d="M1742.745,411.664h9.766v1.954h-9.766Z"
            transform="translate(-1728.096 -383.343)" fill="#acb5c3" />
        <path id="Path_39" data-name="Path 39" d="M1735.951,416.193h15.626v1.954h-15.626Z"
            transform="translate(-1727.162 -383.966)" fill="#acb5c3" />
        <path id="Path_40" data-name="Path 40" d="M1760.861,399.209h1.953v1.954h-1.953Z"
            transform="translate(-1730.588 -381.631)" fill="#acb5c3" />
        <path id="Path_41" data-name="Path 41" d="M1765.39,399.209h7.813v1.954h-7.813Z"
            transform="translate(-1731.21 -381.631)" fill="#acb5c3" />
        <path id="Path_42" data-name="Path 42" d="M1760.861,403.738h11.719v1.954h-11.719Z"
            transform="translate(-1730.588 -382.253)" fill="#acb5c3" />
        <path id="Path_43" data-name="Path 43" d="M1735.951,420.722h12.7v1.954h-12.7Z"
            transform="translate(-1727.162 -384.589)" fill="#acb5c3" />
    </g>
</svg>
