<svg xmlns="http://www.w3.org/2000/svg" width="62.979" height="62.962" viewBox="0 0 62.979 62.962">
    <g id="Group_46" data-name="Group 46" transform="translate(0 0)">
        <g id="Group_27" data-name="Group 27" transform="translate(0 0.26)">
            <g id="Group_26" data-name="Group 26">
                <path id="Path_27" data-name="Path 27"
                    d="M1781.682,915.571h0l0,0-4.065-.58a1.045,1.045,0,0,1-.48-1.871l3.285-2.464a1.046,1.046,0,0,0,.209-1.464l-3.762-5.015a1.045,1.045,0,0,0-1.463-.21l-3.285,2.464a1.045,1.045,0,0,1-1.666-.983l.581-4.065a1.046,1.046,0,0,0-.887-1.183h0l-6.2-.886a1.045,1.045,0,0,0-1.183.886h0l-.581,4.066a1.045,1.045,0,0,1-1.871.48l-2.463-3.286a1.045,1.045,0,0,0-1.463-.209l-3.14,2.356a20.231,20.231,0,0,0-4.274,0,19.856,19.856,0,0,0-17.508,17.8c-.028.3-.038.589-.052.883h-.314a1.045,1.045,0,0,0-1.022.836l-.722,3.434-2.893-1.995a1.045,1.045,0,0,0-1.333.121l-3.135,3.135a1.046,1.046,0,0,0-.121,1.332l1.986,2.887-3.435.723a1.045,1.045,0,0,0-.821,1.023v4.18a1.046,1.046,0,0,0,.83,1.024l3.435.722-1.986,2.888a1.044,1.044,0,0,0,.121,1.331l3.135,3.135a1.045,1.045,0,0,0,1.333.122l2.888-1.992.722,3.435a1.045,1.045,0,0,0,1.022.836h4.179a1.046,1.046,0,0,0,1.024-.83l.722-3.434,2.888,1.985a1.045,1.045,0,0,0,1.331-.122l1.623-1.628v2.978a4.167,4.167,0,0,0,2.09,3.6v5.805a4.18,4.18,0,0,0,4.18,4.18h4.18a4.18,4.18,0,0,0,4.18-4.18v-5.805a4.167,4.167,0,0,0,2.09-3.6v-4.137a5.121,5.121,0,0,1,2.417-4.266,20.012,20.012,0,0,0,2.46-1.881l-1.395-1.557a17.732,17.732,0,0,1-2.2,1.684,7.2,7.2,0,0,0-3.372,6.02v4.137a2.09,2.09,0,0,1-2.091,2.09h-8.36a2.09,2.09,0,0,1-2.09-2.09v-4.224a7.031,7.031,0,0,0-3.314-5.9,17.712,17.712,0,0,1,9.36-32.709c-.015.037-.028.075-.041.114a1.046,1.046,0,0,0,.2.775l2.462,3.284a1.022,1.022,0,0,1,.063,1.16,1.041,1.041,0,0,1-1.045.5l-4.065-.581a1.045,1.045,0,0,0-1.182.886v0l-.887,6.206a1.045,1.045,0,0,0,.886,1.183h0l4.065.581a1.045,1.045,0,0,1,.479,1.871l-3.284,2.462a1.045,1.045,0,0,0-.209,1.464l3.761,5.016a1.046,1.046,0,0,0,1.463.209l3.285-2.463a1.045,1.045,0,0,1,1.66.983l-.58,4.065a1.045,1.045,0,0,0,.886,1.183h0l6.208.888a1.2,1.2,0,0,0,.147.009,1.046,1.046,0,0,0,1.036-.9l.58-4.065a1.044,1.044,0,0,1,1.87-.48l2.464,3.284a1.045,1.045,0,0,0,1.464.209l5.016-3.762a1.045,1.045,0,0,0,.209-1.463l-2.463-3.284a1.028,1.028,0,0,1-.063-1.16,1.017,1.017,0,0,1,1.045-.5l4.065.58a1.045,1.045,0,0,0,1.183-.886h0l.886-6.207A1.044,1.044,0,0,0,1781.682,915.571ZM1747.045,952.6h8.36v2.091h-8.36Zm0,4.181h8.36v1.044a2.09,2.09,0,0,1-2.09,2.091h-4.18a2.09,2.09,0,0,1-2.091-2.091Zm-8.319-18.022a19.731,19.731,0,0,0,1.785,1.3,5.1,5.1,0,0,1,2.106,2.674l-2.241,2.237-2.171-1.5a2.09,2.09,0,0,0-3.231,1.291l-.548,2.609h-2.484l-.548-2.606a2.09,2.09,0,0,0-3.231-1.29l-2.172,1.492-1.9-1.9,1.5-2.17a2.089,2.089,0,0,0-1.289-3.232l-2.606-.549v-2.482l2.606-.549a2.09,2.09,0,0,0,1.29-3.227l-1.5-2.175,1.9-1.9,2.173,1.5a2.09,2.09,0,0,0,3.23-1.292l.183-.869a19.891,19.891,0,0,0,.829,3.544,6.27,6.27,0,1,0,6.32,9.092Zm-1.623-1.472a4.174,4.174,0,1,1-3.919-5.586h.04A19.793,19.793,0,0,0,1737.1,937.284Zm42.652-15.657-3.031-.432a3.135,3.135,0,0,0-2.951,4.984l1.836,2.449-3.344,2.508-1.837-2.448a3.136,3.136,0,0,0-5.612,1.437l-.423,3.035-4.137-.592.432-3.031a3.135,3.135,0,0,0-4.984-2.952l-2.448,1.836-2.508-3.344,2.448-1.837a3.136,3.136,0,0,0-1.437-5.612l-3.031-.432.592-4.137,3.03.433a3.135,3.135,0,0,0,2.952-4.985l-1.842-2.45,3.344-2.508L1758.64,906a3.135,3.135,0,0,0,5.612-1.437l.433-3.031,4.136.591-.432,3.03a3.135,3.135,0,0,0,4.984,2.951l2.449-1.836,2.508,3.344-2.449,1.837a3.136,3.136,0,0,0,1.437,5.612l3.031.433Z"
                    transform="translate(-1719.599 -899.302)" fill="#acb5c3" />
            </g>
        </g>
        <g id="Group_29" data-name="Group 29" transform="translate(36.576 9.941)">
            <g id="Group_28" data-name="Group 28">
                <path id="Path_28" data-name="Path 28"
                    d="M1770.366,910.526a8.361,8.361,0,1,0,8.36,8.36A8.36,8.36,0,0,0,1770.366,910.526Zm0,14.63a6.27,6.27,0,1,1,6.27-6.27A6.269,6.269,0,0,1,1770.366,925.156Z"
                    transform="translate(-1762.006 -910.526)" fill="#acb5c3" />
            </g>
        </g>
        <g id="Group_31" data-name="Group 31" transform="translate(30.582 46.241)">
            <g id="Group_30" data-name="Group 30">
                <rect id="Rectangle_56" data-name="Rectangle 56" width="2.09" height="3.135"
                    fill="#acb5c3" />
            </g>
        </g>
        <g id="Group_33" data-name="Group 33" transform="translate(16.988 11.916)">
            <g id="Group_32" data-name="Group 32">
                <path id="Path_29" data-name="Path 29"
                    d="M1749.363,936.878a12.541,12.541,0,0,1-2.117-22.294l-1.117-1.768a14.631,14.631,0,0,0,2.476,26.007,6.671,6.671,0,0,1,4.284,6.229h2.091A8.746,8.746,0,0,0,1749.363,936.878Z"
                    transform="translate(-1739.295 -912.816)" fill="#acb5c3" />
            </g>
        </g>
        <g id="Group_35" data-name="Group 35" transform="translate(51.482 38.926)">
            <g id="Group_34" data-name="Group 34">
                <rect id="Rectangle_57" data-name="Rectangle 57" width="7.315" height="2.09"
                    fill="#acb5c3" />
            </g>
        </g>
        <g id="Group_37" data-name="Group 37" transform="translate(49.768 44.393)">
            <g id="Group_36" data-name="Group 36">
                <rect id="Rectangle_58" data-name="Rectangle 58" width="2.09" height="8.162"
                    transform="translate(0 1.606) rotate(-50.201)" fill="#acb5c3" />
            </g>
        </g>
        <g id="Group_39" data-name="Group 39" transform="translate(45.212 47.286)">
            <g id="Group_38" data-name="Group 38">
                <rect id="Rectangle_59" data-name="Rectangle 59" width="2.09" height="7.315"
                    fill="#acb5c3" />
            </g>
        </g>
        <g id="Group_41" data-name="Group 41" transform="translate(1.067 15.966)">
            <g id="Group_40" data-name="Group 40">
                <rect id="Rectangle_60" data-name="Rectangle 60" width="8.617" height="2.089"
                    transform="translate(0 2.09) rotate(-14.035)" fill="#acb5c3" />
            </g>
        </g>
        <g id="Group_43" data-name="Group 43" transform="translate(2.803 5.681)">
            <g id="Group_42" data-name="Group 42">
                <rect id="Rectangle_61" data-name="Rectangle 61" width="2.089" height="8.989"
                    transform="matrix(0.581, -0.814, 0.814, 0.581, 0, 1.7)" fill="#acb5c3" />
            </g>
        </g>
        <g id="Group_45" data-name="Group 45" transform="translate(11.757 0)">
            <g id="Group_44" data-name="Group 44">
                <rect id="Rectangle_62" data-name="Rectangle 62" width="2.09" height="8.628"
                    transform="translate(0 0.518) rotate(-14.342)" fill="#acb5c3" />
            </g>
        </g>
    </g>
</svg>
